<svg width="143" height="42" viewBox="0 0 143 42" fill="none" xmlns="http://www.w3.org/2000/svg">
<g clip-path="url(#clip0_1630_4265)">
<path d="M25.4092 18.4142C25.4389 16.1097 26.6487 13.9811 28.6146 12.7741C27.3688 10.9972 25.3568 9.91092 23.1857 9.84309C20.9016 9.60365 18.6872 11.208 17.5232 11.208C16.3367 11.208 14.5446 9.86686 12.6148 9.90651C10.0756 9.98843 7.76582 11.3951 6.53048 13.612C3.89978 18.1606 5.86205 24.8454 8.38205 28.522C9.64285 30.3223 11.1164 32.3334 13.0445 32.262C14.9312 32.1839 15.6358 31.0606 17.9133 31.0606C20.1696 31.0606 20.8307 32.262 22.798 32.2167C24.8225 32.1839 26.0981 30.4084 27.3146 28.591C28.2205 27.3082 28.9176 25.8904 29.3801 24.3901C26.9755 23.3744 25.412 21.0216 25.4092 18.4142Z" fill="#4B4B4B"/>
<path d="M21.6935 7.42514C22.7974 6.10177 23.3412 4.40081 23.2095 2.68347C21.523 2.86036 19.9652 3.6653 18.8464 4.93789C17.7417 6.19348 17.182 7.83611 17.2907 9.50401C18.9998 9.52158 20.6225 8.75537 21.6935 7.42514Z" fill="#4B4B4B"/>
</g>
<path d="M52.6328 12.8456H49.7969V4.84558H52.6562C53.4609 4.84558 54.1536 5.00574 54.7344 5.32605C55.3151 5.64376 55.7617 6.10079 56.0742 6.69714C56.3893 7.2935 56.5469 8.00704 56.5469 8.83777C56.5469 9.6711 56.3893 10.3872 56.0742 10.9862C55.7617 11.5852 55.3125 12.0448 54.7266 12.3651C54.1432 12.6854 53.4453 12.8456 52.6328 12.8456ZM51.4883 11.3964H52.5625C53.0625 11.3964 53.4831 11.3078 53.8242 11.1307C54.168 10.951 54.4258 10.6737 54.5977 10.2987C54.7721 9.9211 54.8594 9.43412 54.8594 8.83777C54.8594 8.24662 54.7721 7.76355 54.5977 7.38855C54.4258 7.01355 54.1693 6.73751 53.8281 6.56042C53.487 6.38334 53.0664 6.2948 52.5664 6.2948H51.4883V11.3964ZM60.4795 12.9628C59.8727 12.9628 59.348 12.8339 58.9053 12.576C58.4652 12.3156 58.1253 11.9537 57.8857 11.4901C57.6462 11.024 57.5264 10.4836 57.5264 9.86902C57.5264 9.24923 57.6462 8.70756 57.8857 8.24402C58.1253 7.77787 58.4652 7.41589 58.9053 7.15808C59.348 6.89766 59.8727 6.76746 60.4795 6.76746C61.0863 6.76746 61.6097 6.89766 62.0498 7.15808C62.4925 7.41589 62.8337 7.77787 63.0732 8.24402C63.3128 8.70756 63.4326 9.24923 63.4326 9.86902C63.4326 10.4836 63.3128 11.024 63.0732 11.4901C62.8337 11.9537 62.4925 12.3156 62.0498 12.576C61.6097 12.8339 61.0863 12.9628 60.4795 12.9628ZM60.4873 11.6737C60.7633 11.6737 60.9938 11.5956 61.1787 11.4393C61.3636 11.2805 61.5029 11.0643 61.5967 10.7909C61.693 10.5175 61.7412 10.2063 61.7412 9.8573C61.7412 9.50834 61.693 9.19714 61.5967 8.92371C61.5029 8.65027 61.3636 8.43412 61.1787 8.27527C60.9938 8.11641 60.7633 8.03699 60.4873 8.03699C60.2087 8.03699 59.9743 8.11641 59.7842 8.27527C59.5967 8.43412 59.4548 8.65027 59.3584 8.92371C59.2646 9.19714 59.2178 9.50834 59.2178 9.8573C59.2178 10.2063 59.2646 10.5175 59.3584 10.7909C59.4548 11.0643 59.5967 11.2805 59.7842 11.4393C59.9743 11.5956 60.2087 11.6737 60.4873 11.6737ZM65.5479 12.8456L63.915 6.84558H65.5986L66.5283 10.8768H66.583L67.5518 6.84558H69.2041L70.1885 10.8534H70.2393L71.1533 6.84558H72.833L71.2041 12.8456H69.4424L68.4111 9.07214H68.3369L67.3057 12.8456H65.5479ZM75.3848 9.37683V12.8456H73.7207V6.84558H75.3066V7.90417H75.377C75.5098 7.55522 75.7324 7.27917 76.0449 7.07605C76.3574 6.87032 76.7363 6.76746 77.1816 6.76746C77.5983 6.76746 77.9616 6.8586 78.2715 7.04089C78.5814 7.22318 78.8223 7.4836 78.9941 7.82214C79.166 8.15808 79.252 8.55912 79.252 9.02527V12.8456H77.5879V9.32214C77.5905 8.95496 77.4967 8.6685 77.3066 8.46277C77.1165 8.25444 76.8548 8.15027 76.5215 8.15027C76.2975 8.15027 76.0996 8.19845 75.9277 8.2948C75.7585 8.39115 75.6257 8.53178 75.5293 8.71667C75.4355 8.89897 75.3874 9.11902 75.3848 9.37683ZM82.2275 4.84558V12.8456H80.5635V4.84558H82.2275ZM86.2715 12.9628C85.6647 12.9628 85.14 12.8339 84.6973 12.576C84.2572 12.3156 83.9173 11.9537 83.6777 11.4901C83.4382 11.024 83.3184 10.4836 83.3184 9.86902C83.3184 9.24923 83.4382 8.70756 83.6777 8.24402C83.9173 7.77787 84.2572 7.41589 84.6973 7.15808C85.14 6.89766 85.6647 6.76746 86.2715 6.76746C86.8783 6.76746 87.4017 6.89766 87.8418 7.15808C88.2845 7.41589 88.6257 7.77787 88.8652 8.24402C89.1048 8.70756 89.2246 9.24923 89.2246 9.86902C89.2246 10.4836 89.1048 11.024 88.8652 11.4901C88.6257 11.9537 88.2845 12.3156 87.8418 12.576C87.4017 12.8339 86.8783 12.9628 86.2715 12.9628ZM86.2793 11.6737C86.5553 11.6737 86.7858 11.5956 86.9707 11.4393C87.1556 11.2805 87.2949 11.0643 87.3887 10.7909C87.485 10.5175 87.5332 10.2063 87.5332 9.8573C87.5332 9.50834 87.485 9.19714 87.3887 8.92371C87.2949 8.65027 87.1556 8.43412 86.9707 8.27527C86.7858 8.11641 86.5553 8.03699 86.2793 8.03699C86.0007 8.03699 85.7663 8.11641 85.5762 8.27527C85.3887 8.43412 85.2467 8.65027 85.1504 8.92371C85.0566 9.19714 85.0098 9.50834 85.0098 9.8573C85.0098 10.2063 85.0566 10.5175 85.1504 10.7909C85.2467 11.0643 85.3887 11.2805 85.5762 11.4393C85.7663 11.5956 86.0007 11.6737 86.2793 11.6737ZM92.0176 12.9589C91.6348 12.9589 91.2936 12.8925 90.9941 12.7596C90.6947 12.6242 90.4577 12.425 90.2832 12.162C90.1113 11.8964 90.0254 11.5656 90.0254 11.1698C90.0254 10.8365 90.0866 10.5565 90.209 10.33C90.3314 10.1034 90.498 9.9211 90.709 9.78308C90.9199 9.64506 91.1595 9.54089 91.4277 9.47058C91.6986 9.40027 91.9824 9.35079 92.2793 9.32214C92.6283 9.28569 92.9095 9.25183 93.123 9.22058C93.3366 9.18673 93.4915 9.13725 93.5879 9.07214C93.6842 9.00704 93.7324 8.91069 93.7324 8.78308V8.75964C93.7324 8.51225 93.6543 8.32084 93.498 8.18542C93.3444 8.05001 93.1257 7.9823 92.8418 7.9823C92.5423 7.9823 92.304 8.04871 92.127 8.18152C91.9499 8.31173 91.8327 8.47579 91.7754 8.67371L90.2363 8.54871C90.3145 8.18412 90.4681 7.86902 90.6973 7.60339C90.9264 7.33516 91.222 7.12943 91.584 6.98621C91.9486 6.84037 92.3704 6.76746 92.8496 6.76746C93.1829 6.76746 93.502 6.80652 93.8066 6.88464C94.1139 6.96277 94.3861 7.08386 94.623 7.24792C94.8626 7.41199 95.0514 7.62292 95.1895 7.88074C95.3275 8.13595 95.3965 8.44194 95.3965 8.79871V12.8456H93.8184V12.0135H93.7715C93.6751 12.201 93.5462 12.3664 93.3848 12.5096C93.2233 12.6503 93.0293 12.7609 92.8027 12.8417C92.5762 12.9198 92.3145 12.9589 92.0176 12.9589ZM92.4941 11.8104C92.7389 11.8104 92.9551 11.7622 93.1426 11.6659C93.3301 11.5669 93.4772 11.4341 93.584 11.2675C93.6908 11.1008 93.7441 10.912 93.7441 10.701V10.0643C93.6921 10.0982 93.6204 10.1294 93.5293 10.1581C93.4408 10.1841 93.3405 10.2089 93.2285 10.2323C93.1165 10.2531 93.0046 10.2727 92.8926 10.2909C92.7806 10.3065 92.679 10.3208 92.5879 10.3339C92.3926 10.3625 92.222 10.4081 92.0762 10.4706C91.9303 10.5331 91.8171 10.6177 91.7363 10.7245C91.6556 10.8287 91.6152 10.9589 91.6152 11.1151C91.6152 11.3417 91.6973 11.5149 91.8613 11.6346C92.028 11.7518 92.2389 11.8104 92.4941 11.8104ZM98.8984 12.9432C98.4427 12.9432 98.0299 12.826 97.6602 12.5917C97.293 12.3547 97.0013 12.007 96.7852 11.5487C96.5716 11.0878 96.4648 10.5227 96.4648 9.85339C96.4648 9.16589 96.5755 8.59428 96.7969 8.13855C97.0182 7.68022 97.3125 7.33777 97.6797 7.11121C98.0495 6.88204 98.4544 6.76746 98.8945 6.76746C99.2305 6.76746 99.5104 6.82475 99.7344 6.93933C99.9609 7.05131 100.143 7.19194 100.281 7.36121C100.422 7.52787 100.529 7.69194 100.602 7.85339H100.652V4.84558H102.313V12.8456H100.672V11.8846H100.602C100.523 12.0513 100.413 12.2167 100.27 12.3807C100.129 12.5422 99.9453 12.6763 99.7188 12.7831C99.4948 12.8899 99.2214 12.9432 98.8984 12.9432ZM99.4258 11.619C99.694 11.619 99.9206 11.5461 100.105 11.4003C100.293 11.2518 100.436 11.0448 100.535 10.7792C100.637 10.5135 100.688 10.2024 100.688 9.84558C100.688 9.48881 100.638 9.17891 100.539 8.91589C100.44 8.65287 100.297 8.44975 100.109 8.30652C99.9219 8.16329 99.694 8.09167 99.4258 8.09167C99.1523 8.09167 98.9219 8.16589 98.7344 8.31433C98.5469 8.46277 98.4049 8.6685 98.3086 8.93152C98.2122 9.19454 98.1641 9.49923 98.1641 9.84558C98.1641 10.1945 98.2122 10.5031 98.3086 10.7714C98.4076 11.037 98.5495 11.2453 98.7344 11.3964C98.9219 11.5448 99.1523 11.619 99.4258 11.619ZM108.938 12.9628C108.331 12.9628 107.806 12.8339 107.363 12.576C106.923 12.3156 106.583 11.9537 106.344 11.4901C106.104 11.024 105.984 10.4836 105.984 9.86902C105.984 9.24923 106.104 8.70756 106.344 8.24402C106.583 7.77787 106.923 7.41589 107.363 7.15808C107.806 6.89766 108.331 6.76746 108.938 6.76746C109.544 6.76746 110.068 6.89766 110.508 7.15808C110.951 7.41589 111.292 7.77787 111.531 8.24402C111.771 8.70756 111.891 9.24923 111.891 9.86902C111.891 10.4836 111.771 11.024 111.531 11.4901C111.292 11.9537 110.951 12.3156 110.508 12.576C110.068 12.8339 109.544 12.9628 108.938 12.9628ZM108.945 11.6737C109.221 11.6737 109.452 11.5956 109.637 11.4393C109.822 11.2805 109.961 11.0643 110.055 10.7909C110.151 10.5175 110.199 10.2063 110.199 9.8573C110.199 9.50834 110.151 9.19714 110.055 8.92371C109.961 8.65027 109.822 8.43412 109.637 8.27527C109.452 8.11641 109.221 8.03699 108.945 8.03699C108.667 8.03699 108.432 8.11641 108.242 8.27527C108.055 8.43412 107.913 8.65027 107.816 8.92371C107.723 9.19714 107.676 9.50834 107.676 9.8573C107.676 10.2063 107.723 10.5175 107.816 10.7909C107.913 11.0643 108.055 11.2805 108.242 11.4393C108.432 11.5956 108.667 11.6737 108.945 11.6737ZM114.637 9.37683V12.8456H112.973V6.84558H114.559V7.90417H114.629C114.762 7.55522 114.984 7.27917 115.297 7.07605C115.609 6.87032 115.988 6.76746 116.434 6.76746C116.85 6.76746 117.214 6.8586 117.523 7.04089C117.833 7.22318 118.074 7.4836 118.246 7.82214C118.418 8.15808 118.504 8.55912 118.504 9.02527V12.8456H116.84V9.32214C116.842 8.95496 116.749 8.6685 116.559 8.46277C116.368 8.25444 116.107 8.15027 115.773 8.15027C115.549 8.15027 115.352 8.19845 115.18 8.2948C115.01 8.39115 114.878 8.53178 114.781 8.71667C114.688 8.89897 114.639 9.11902 114.637 9.37683ZM125.553 6.84558V8.09558H121.939V6.84558H125.553ZM122.76 5.40808H124.424V11.0018C124.424 11.1555 124.447 11.2753 124.494 11.3612C124.541 11.4445 124.606 11.5031 124.689 11.537C124.775 11.5708 124.874 11.5878 124.986 11.5878C125.064 11.5878 125.143 11.5813 125.221 11.5682C125.299 11.5526 125.359 11.5409 125.4 11.5331L125.662 12.7714C125.579 12.7974 125.462 12.8274 125.311 12.8612C125.16 12.8977 124.976 12.9198 124.76 12.9276C124.359 12.9432 124.007 12.8899 123.705 12.7675C123.406 12.6451 123.173 12.455 123.006 12.1971C122.839 11.9393 122.757 11.6138 122.76 11.2206V5.40808ZM128.43 9.37683V12.8456H126.766V4.84558H128.383V7.90417H128.453C128.589 7.55001 128.807 7.27266 129.109 7.07214C129.411 6.86902 129.79 6.76746 130.246 6.76746C130.663 6.76746 131.026 6.8586 131.336 7.04089C131.648 7.22058 131.891 7.4797 132.063 7.81824C132.237 8.15417 132.323 8.55652 132.32 9.02527V12.8456H130.656V9.32214C130.659 8.95235 130.565 8.66459 130.375 8.45886C130.188 8.25313 129.924 8.15027 129.586 8.15027C129.359 8.15027 129.159 8.19845 128.984 8.2948C128.813 8.39115 128.677 8.53178 128.578 8.71667C128.482 8.89897 128.432 9.11902 128.43 9.37683ZM136.364 12.9628C135.747 12.9628 135.216 12.8378 134.771 12.5878C134.328 12.3352 133.987 11.9784 133.747 11.5175C133.507 11.0539 133.388 10.5057 133.388 9.87292C133.388 9.25574 133.507 8.71407 133.747 8.24792C133.987 7.78178 134.324 7.4185 134.759 7.15808C135.196 6.89766 135.709 6.76746 136.298 6.76746C136.694 6.76746 137.062 6.83126 137.403 6.95886C137.747 7.08386 138.047 7.27266 138.302 7.52527C138.56 7.77787 138.76 8.09558 138.903 8.47839C139.047 8.8586 139.118 9.30391 139.118 9.81433V10.2714H134.052V9.24011H137.552C137.552 9.00053 137.5 8.78829 137.396 8.60339C137.291 8.4185 137.147 8.27397 136.962 8.1698C136.78 8.06303 136.567 8.00964 136.325 8.00964C136.073 8.00964 135.849 8.06824 135.653 8.18542C135.461 8.30001 135.31 8.45496 135.2 8.65027C135.091 8.84298 135.035 9.05782 135.032 9.2948V10.2753C135.032 10.5721 135.087 10.8287 135.196 11.0448C135.308 11.2609 135.466 11.4276 135.669 11.5448C135.872 11.662 136.113 11.7206 136.392 11.7206C136.576 11.7206 136.746 11.6945 136.899 11.6425C137.053 11.5904 137.185 11.5122 137.294 11.4081C137.403 11.3039 137.487 11.1763 137.544 11.0253L139.083 11.1268C139.005 11.4966 138.845 11.8195 138.603 12.0956C138.363 12.369 138.053 12.5826 137.673 12.7362C137.295 12.8872 136.859 12.9628 136.364 12.9628Z" fill="#4B4B4B"/>
<path d="M50.0774 34.0331H47.7706L51.2855 23.8513H54.0597L57.5696 34.0331H55.2628L52.7124 26.178H52.6328L50.0774 34.0331ZM49.9332 30.031H55.3821V31.7113H49.9332V30.031ZM58.7553 36.8967V26.3967H60.8434V27.6794H60.9379C61.0307 27.4739 61.1649 27.2651 61.3406 27.053C61.5195 26.8375 61.7515 26.6586 62.0366 26.516C62.3249 26.3702 62.6829 26.2973 63.1104 26.2973C63.6673 26.2973 64.181 26.4431 64.6516 26.7348C65.1223 27.0231 65.4985 27.459 65.7802 28.0423C66.0619 28.6223 66.2028 29.3498 66.2028 30.2248C66.2028 31.0766 66.0652 31.7959 65.7901 32.3825C65.5183 32.9658 65.1471 33.4083 64.6765 33.7099C64.2092 34.0082 63.6855 34.1574 63.1055 34.1574C62.6945 34.1574 62.3448 34.0894 62.0565 33.9535C61.7714 33.8176 61.5378 33.647 61.3555 33.4415C61.1732 33.2327 61.034 33.0222 60.9379 32.8101H60.8732V36.8967H58.7553ZM60.8285 30.2149C60.8285 30.669 60.8915 31.065 61.0174 31.4031C61.1433 31.7412 61.3256 32.0047 61.5643 32.1936C61.8029 32.3792 62.0929 32.472 62.4343 32.472C62.779 32.472 63.0707 32.3775 63.3093 32.1886C63.5479 31.9964 63.7286 31.7312 63.8512 31.3932C63.9772 31.0518 64.0401 30.659 64.0401 30.2149C64.0401 29.7741 63.9788 29.3863 63.8562 29.0515C63.7335 28.7168 63.5529 28.455 63.3143 28.266C63.0756 28.0771 62.7823 27.9827 62.4343 27.9827C62.0896 27.9827 61.7979 28.0738 61.5593 28.2561C61.324 28.4384 61.1433 28.6969 61.0174 29.0317C60.8915 29.3664 60.8285 29.7608 60.8285 30.2149ZM67.6147 36.8967V26.3967H69.7028V27.6794H69.7972C69.89 27.4739 70.0243 27.2651 70.1999 27.053C70.3789 26.8375 70.6109 26.6586 70.896 26.516C71.1843 26.3702 71.5423 26.2973 71.9698 26.2973C72.5266 26.2973 73.0404 26.4431 73.511 26.7348C73.9817 27.0231 74.3578 27.459 74.6396 28.0423C74.9213 28.6223 75.0621 29.3498 75.0621 30.2248C75.0621 31.0766 74.9246 31.7959 74.6495 32.3825C74.3777 32.9658 74.0065 33.4083 73.5359 33.7099C73.0685 34.0082 72.5449 34.1574 71.9648 34.1574C71.5539 34.1574 71.2042 34.0894 70.9158 33.9535C70.6308 33.8176 70.3971 33.647 70.2148 33.4415C70.0326 33.2327 69.8933 33.0222 69.7972 32.8101H69.7326V36.8967H67.6147ZM69.6879 30.2149C69.6879 30.669 69.7508 31.065 69.8768 31.4031C70.0027 31.7412 70.185 32.0047 70.4237 32.1936C70.6623 32.3792 70.9523 32.472 71.2937 32.472C71.6384 32.472 71.93 32.3775 72.1687 32.1886C72.4073 31.9964 72.5879 31.7312 72.7106 31.3932C72.8365 31.0518 72.8995 30.659 72.8995 30.2149C72.8995 29.7741 72.8382 29.3863 72.7156 29.0515C72.5929 28.7168 72.4123 28.455 72.1737 28.266C71.935 28.0771 71.6417 27.9827 71.2937 27.9827C70.949 27.9827 70.6573 28.0738 70.4187 28.2561C70.1834 28.4384 70.0027 28.6969 69.8768 29.0317C69.7508 29.3664 69.6879 29.7608 69.6879 30.2149ZM85.2775 26.7795C85.2377 26.3785 85.0671 26.0669 84.7654 25.8449C84.4638 25.6228 84.0545 25.5118 83.5375 25.5118C83.1861 25.5118 82.8895 25.5615 82.6475 25.6609C82.4056 25.757 82.22 25.8913 82.0907 26.0636C81.9648 26.236 81.9018 26.4315 81.9018 26.6503C81.8952 26.8326 81.9333 26.9917 82.0162 27.1275C82.1023 27.2634 82.22 27.3811 82.3691 27.4805C82.5183 27.5766 82.6906 27.6612 82.8862 27.7341C83.0817 27.8037 83.2905 27.8633 83.5126 27.9131L84.4274 28.1318C84.8715 28.2312 85.2792 28.3638 85.6504 28.5295C86.0216 28.6952 86.3431 28.8991 86.6149 29.141C86.8867 29.383 87.0971 29.668 87.2463 29.9961C87.3987 30.3243 87.4766 30.7005 87.4799 31.1247C87.4766 31.7478 87.3175 32.2881 87.0027 32.7454C86.6911 33.1995 86.2404 33.5525 85.6504 33.8044C85.0637 34.053 84.3561 34.1773 83.5275 34.1773C82.7056 34.1773 81.9896 34.0513 81.3798 33.7994C80.7733 33.5475 80.2993 33.1747 79.9579 32.6808C79.6199 32.1836 79.4425 31.5688 79.426 30.8363H81.5091C81.5323 31.1777 81.63 31.4628 81.8024 31.6915C81.978 31.9168 82.2117 32.0875 82.5034 32.2035C82.7984 32.3162 83.1315 32.3726 83.5027 32.3726C83.8672 32.3726 84.1838 32.3195 84.4522 32.2135C84.724 32.1074 84.9345 31.9599 85.0836 31.771C85.2328 31.5821 85.3074 31.365 85.3074 31.1197C85.3074 30.891 85.2394 30.6988 85.1035 30.543C84.9709 30.3872 84.7754 30.2547 84.5169 30.1453C84.2617 30.0359 83.9484 29.9365 83.5772 29.847L82.4686 29.5686C81.6101 29.3598 80.9324 29.0333 80.4352 28.5892C79.938 28.1451 79.6911 27.5468 79.6944 26.7944C79.6911 26.178 79.8552 25.6394 80.1866 25.1787C80.5214 24.718 80.9804 24.3584 81.5637 24.0998C82.1471 23.8413 82.81 23.7121 83.5524 23.7121C84.3081 23.7121 84.9676 23.8413 85.5311 24.0998C86.0978 24.3584 86.5386 24.718 86.8535 25.1787C87.1684 25.6394 87.3308 26.173 87.3407 26.7795H85.2775ZM92.9499 26.3967V27.9876H88.3512V26.3967H92.9499ZM89.3952 24.5672H91.5131V31.6865C91.5131 31.882 91.543 32.0345 91.6026 32.1439C91.6623 32.2499 91.7451 32.3245 91.8512 32.3676C91.9606 32.4107 92.0865 32.4322 92.229 32.4322C92.3285 32.4322 92.4279 32.4239 92.5273 32.4074C92.6268 32.3875 92.703 32.3726 92.756 32.3626L93.0891 33.9386C92.9831 33.9718 92.8339 34.0099 92.6417 34.053C92.4495 34.0994 92.2158 34.1275 91.9407 34.1375C91.4303 34.1574 90.9828 34.0894 90.5984 33.9336C90.2172 33.7779 89.9206 33.5359 89.7085 33.2078C89.4963 32.8797 89.3919 32.4654 89.3952 31.9649V24.5672ZM97.6978 34.1822C96.9255 34.1822 96.2577 34.0182 95.6942 33.69C95.1341 33.3586 94.7016 32.8979 94.3967 32.3079C94.0917 31.7147 93.9393 31.0269 93.9393 30.2447C93.9393 29.4559 94.0917 28.7665 94.3967 28.1765C94.7016 27.5833 95.1341 27.1226 95.6942 26.7944C96.2577 26.463 96.9255 26.2973 97.6978 26.2973C98.4701 26.2973 99.1362 26.463 99.6964 26.7944C100.26 27.1226 100.694 27.5833 100.999 28.1765C101.304 28.7665 101.456 29.4559 101.456 30.2447C101.456 31.0269 101.304 31.7147 100.999 32.3079C100.694 32.8979 100.26 33.3586 99.6964 33.69C99.1362 34.0182 98.4701 34.1822 97.6978 34.1822ZM97.7077 32.5416C98.0591 32.5416 98.3524 32.4422 98.5877 32.2433C98.823 32.0411 99.0004 31.766 99.1197 31.418C99.2423 31.07 99.3036 30.6739 99.3036 30.2298C99.3036 29.7857 99.2423 29.3896 99.1197 29.0416C99.0004 28.6936 98.823 28.4185 98.5877 28.2163C98.3524 28.0141 98.0591 27.9131 97.7077 27.9131C97.3531 27.9131 97.0548 28.0141 96.8129 28.2163C96.5742 28.4185 96.3936 28.6936 96.271 29.0416C96.1516 29.3896 96.092 29.7857 96.092 30.2298C96.092 30.6739 96.1516 31.07 96.271 31.418C96.3936 31.766 96.5742 32.0411 96.8129 32.2433C97.0548 32.4422 97.3531 32.5416 97.7077 32.5416ZM102.833 34.0331V26.3967H104.887V27.7291H104.966C105.105 27.2551 105.339 26.8972 105.667 26.6552C105.995 26.41 106.373 26.2873 106.801 26.2873C106.907 26.2873 107.021 26.294 107.144 26.3072C107.266 26.3205 107.374 26.3387 107.467 26.3619V28.2412C107.368 28.2113 107.23 28.1848 107.054 28.1616C106.879 28.1384 106.718 28.1268 106.572 28.1268C106.261 28.1268 105.982 28.1948 105.737 28.3307C105.495 28.4632 105.303 28.6488 105.16 28.8875C105.021 29.1261 104.951 29.4012 104.951 29.7128V34.0331H102.833ZM111.687 34.1822C110.901 34.1822 110.225 34.0231 109.658 33.705C109.095 33.3835 108.661 32.9294 108.356 32.3427C108.051 31.7528 107.898 31.0551 107.898 30.2497C107.898 29.4642 108.051 28.7748 108.356 28.1815C108.661 27.5882 109.09 27.1259 109.643 26.7944C110.2 26.463 110.853 26.2973 111.602 26.2973C112.106 26.2973 112.575 26.3785 113.009 26.5409C113.447 26.7 113.828 26.9403 114.153 27.2618C114.481 27.5833 114.736 27.9876 114.918 28.4748C115.1 28.9587 115.192 29.5255 115.192 30.1751V30.7568H108.743V29.4443H113.198C113.198 29.1394 113.132 28.8693 112.999 28.6339C112.867 28.3986 112.683 28.2147 112.447 28.0821C112.215 27.9462 111.945 27.8783 111.637 27.8783C111.315 27.8783 111.03 27.9528 110.782 28.102C110.537 28.2478 110.344 28.445 110.205 28.6936C110.066 28.9389 109.995 29.2123 109.991 29.5139V30.7618C109.991 31.1396 110.061 31.4661 110.2 31.7412C110.343 32.0163 110.543 32.2284 110.802 32.3775C111.06 32.5267 111.367 32.6013 111.721 32.6013C111.957 32.6013 112.172 32.5681 112.368 32.5018C112.563 32.4355 112.731 32.3361 112.87 32.2035C113.009 32.071 113.115 31.9086 113.188 31.7163L115.147 31.8456C115.047 32.3162 114.844 32.7272 114.535 33.0785C114.23 33.4265 113.836 33.6983 113.352 33.8939C112.872 34.0861 112.316 34.1822 111.687 34.1822Z" fill="#4B4B4B"/>
<defs>
<clipPath id="clip0_1630_4265">
<rect width="34" height="34" fill="white" transform="translate(0.6875 0.845581)"/>
</clipPath>
</defs>
</svg>
