<svg width="186" height="181" viewBox="0 0 186 181" fill="none" xmlns="http://www.w3.org/2000/svg">
<g clip-path="url(#clip0_1595_5633)">
<g clip-path="url(#clip1_1595_5633)">
<path d="M60.7344 148.876C65.6476 145.273 72.5519 146.334 76.1554 151.248C79.7588 156.161 78.6971 163.066 73.7839 166.669L65.5464 172.71C60.6331 176.313 53.7288 175.252 50.1253 170.34C46.5217 165.426 47.5834 158.521 52.4968 154.918L60.7344 148.876Z" fill="#E619DF"/>
<path fill-rule="evenodd" clip-rule="evenodd" d="M58.2366 150.711C61.555 155.6 60.4327 162.277 55.6296 165.798L49.8898 170.009C46.5713 165.121 47.6936 158.444 52.4967 154.921L58.2366 150.711Z" fill="#C128C1"/>
<path d="M38.5937 146.489C43.507 142.885 50.4111 143.947 54.0147 148.86C57.6182 153.773 56.5565 160.678 51.6433 164.281L43.4057 170.323C38.4924 173.926 31.5882 172.864 27.9847 167.952C24.3811 163.038 25.4429 156.134 30.3561 152.53L38.5937 146.489Z" fill="#E619DF"/>
<path d="M30.0866 110.54L62.5608 33.5483C77.9342 31.5543 96.5831 58.5822 85.6268 90.0894C75.9448 117.933 52.17 123.578 33.1208 117.62C30.1756 116.699 28.8874 113.384 30.0866 110.54Z" fill="url(#paint0_radial_1595_5633)"/>
<path d="M116.932 12.7232C111.114 11.8613 87.3139 -8.11426 59.8425 4.59226C49.4196 9.41326 44.4178 18.0895 42.8549 31.0401C41.4699 42.5162 46.1415 54.187 49.7601 66.7016C45.2015 81.0918 42.2175 91.1185 47.059 103.777C55.9181 126.939 84.155 151.071 121.828 137.606C178.497 117.352 162.103 47.1601 157.794 31.6461C153.484 16.1321 143.903 9.06126 135.931 9.70768C127.958 10.3541 122.75 13.585 116.932 12.7232Z" fill="url(#paint1_radial_1595_5633)"/>
<path fill-rule="evenodd" clip-rule="evenodd" d="M59.2863 123.103C66.6103 120.757 74.882 116.124 83.0486 107.087C84.0283 106.003 83.9435 104.33 82.8595 103.35C81.7753 102.371 80.1024 102.455 79.1229 103.539C71.564 111.904 64.0709 116.024 57.6206 118.08C56.9112 118.307 56.2132 118.508 55.5273 118.688C56.6983 120.2 57.9524 121.676 59.2863 123.103Z" fill="#1F66FB"/>
<path fill-rule="evenodd" clip-rule="evenodd" d="M156.892 38.4149C155.556 28.1999 150.185 24.1227 146.587 24.5933C142.988 25.0638 143.444 29.6162 144.78 39.8312C145.289 43.7264 145.505 45.8259 145.616 47.0832C148.086 48.8553 149.867 51.6115 149.867 54.7815C149.246 54.9736 148.567 55.1373 147.842 55.2742C148.532 56.7904 149.384 58.3215 150.345 59.4329C153.029 56.1936 156.309 54.123 158.612 53.0473C158.58 51.8592 158.465 50.4913 158.259 48.9155L156.892 38.4149Z" fill="#C7FFFE"/>
<path fill-rule="evenodd" clip-rule="evenodd" d="M145.616 47.0883C146.797 47.9354 147.82 49.0073 148.567 50.2416L148.734 50.2179C151.488 49.8285 153.404 47.2806 153.015 44.5268L151.291 32.3325C150.925 29.7459 148.655 27.8979 146.099 28.0056C147.111 28.7243 147.771 29.9057 147.771 31.2413C147.771 33.2985 146.204 34.9899 144.199 35.1879C144.358 36.5845 144.557 38.1316 144.78 39.8362C145.289 43.7316 145.505 45.8311 145.616 47.0883Z" fill="#3C4DFF"/>
<path fill-rule="evenodd" clip-rule="evenodd" d="M101.408 18.6156C111.278 17.3249 120.362 24.5593 121.698 34.7742L123.059 45.1781C123.91 51.6889 121.408 57.839 116.926 61.7775C110.464 56.9238 100.115 51.0272 87.3015 49.7519L85.9541 39.4484C84.6183 29.2335 91.537 19.9064 101.408 18.6156Z" fill="#C7FFFE"/>
<path fill-rule="evenodd" clip-rule="evenodd" d="M102.593 34.7121C105.698 34.1838 107.784 31.2838 107.252 28.235C107.094 27.3333 106.726 26.5194 106.204 25.8342C106.848 25.5551 107.537 25.3476 108.263 25.2241C112.958 24.425 117.405 27.4433 118.194 31.9656L119.718 40.7001C120.507 45.2224 117.341 49.5362 112.645 50.3355C107.95 51.1345 103.503 48.1162 102.714 43.5939L101.189 34.8596C101.185 34.8327 101.18 34.8058 101.176 34.7788C101.639 34.8139 102.114 34.7936 102.593 34.7121Z" fill="#3C4DFF"/>
<path fill-rule="evenodd" clip-rule="evenodd" d="M130.216 57.2164C131.047 57.135 131.787 57.7429 131.868 58.5738C132.51 65.1376 134.235 69.5447 136.581 71.6027C137.698 72.583 138.976 73.0524 140.473 72.9813C142.015 72.9083 143.901 72.2544 146.144 70.7587C146.839 70.2956 147.777 70.4833 148.241 71.1781C148.704 71.8727 148.516 72.8113 147.821 73.2746C145.295 74.9583 142.882 75.8941 140.617 76.0015C138.307 76.111 136.27 75.3521 134.587 73.8755C131.333 71.02 129.517 65.5998 128.859 58.8681C128.778 58.0372 129.385 57.2976 130.216 57.2164Z" fill="#0455FF"/>
<path d="M141.228 68.9274C137.403 68.3048 137.003 65.4134 134.289 55.2717H144.431C144.653 56.962 145.276 62.1663 145.588 64.3903C145.962 67.069 144.52 69.4631 141.228 68.9274Z" fill="#0455FF"/>
<path fill-rule="evenodd" clip-rule="evenodd" d="M133.707 46.6868C134.311 47.2626 135.24 47.6842 136.537 47.7394C136.674 47.7453 136.809 47.7505 136.942 47.7557C139.441 47.8539 141.308 47.9273 143.053 50.9402C143.848 52.3146 147.352 52.2831 147.926 49.2996C145.905 46.6754 142.594 44.9891 139.427 44.9893C137.267 44.9893 135.308 45.6408 133.707 46.6868Z" fill="#C7FFFE"/>
<path fill-rule="evenodd" clip-rule="evenodd" d="M128.421 54.2147C128.634 53.4073 129.461 52.9251 130.268 53.1377C137.418 55.0211 144.093 54.272 148.2 53.4507C149.019 53.287 149.815 53.8179 149.979 54.6367C150.143 55.4553 149.612 56.2517 148.793 56.4156C144.448 57.2845 137.264 58.1074 129.498 56.0616C128.691 55.849 128.209 55.0219 128.421 54.2147Z" fill="#0455FF"/>
<path fill-rule="evenodd" clip-rule="evenodd" d="M84.2758 8.06845C83.4381 7.75685 82.6203 7.73092 81.7824 8.24093C81.0692 8.67507 80.1392 8.44887 79.7051 7.7357C79.2709 7.02252 79.4971 6.09242 80.2103 5.65829C82.0315 4.54958 83.8604 4.68805 85.3298 5.23459C86.7489 5.76236 87.9009 6.6877 88.5949 7.30465C89.2189 7.85935 89.2752 8.8149 88.7204 9.43893C88.1658 10.063 87.2101 10.1192 86.5861 9.56449C85.9797 9.0253 85.164 8.39881 84.2758 8.06845Z" fill="#C7FFFE"/>
<path fill-rule="evenodd" clip-rule="evenodd" d="M134.268 11.0306C134.98 10.5945 135.911 10.8181 136.347 11.5301C138.233 14.6096 138.784 17.4627 137.843 19.7009C136.869 22.0178 134.56 23.0844 132.094 23.0844C131.259 23.0844 130.582 22.4077 130.582 21.5727C130.582 20.7378 131.259 20.0609 132.094 20.0609C133.748 20.0609 134.693 19.3927 135.056 18.529C135.452 17.5864 135.425 15.813 133.769 13.1093C133.332 12.3973 133.556 11.4666 134.268 11.0306Z" fill="#1F66FB"/>
<path fill-rule="evenodd" clip-rule="evenodd" d="M81.6694 5.68054C82.4014 6.082 82.6694 7.00092 82.268 7.733C80.6225 10.7336 81.4382 14.4061 81.9397 15.9106L82.309 17.0185L81.3305 17.6556C81.0414 17.8439 80.5142 18.3499 79.8711 19.237C79.2508 20.0928 78.5893 21.2111 77.9996 22.5171C76.8151 25.14 75.9685 28.4106 76.232 31.7325C76.958 40.8803 77.9625 50.0916 79.491 54.955C79.5603 55.1756 79.6302 55.402 79.7017 55.6337C80.4725 58.1294 81.4305 61.2319 83.8356 64.124C86.4216 67.2337 90.8056 70.2239 98.8163 71.5474C111.768 73.6873 119.186 69.7554 121.068 67.9123C121.665 67.3282 122.622 67.3382 123.206 67.9348C123.79 68.5314 123.78 69.4885 123.184 70.0726C120.442 72.7576 111.962 76.7839 98.3236 74.5305C89.715 73.1082 84.6333 69.812 81.5108 66.0573C78.7008 62.6782 77.5799 59.0268 76.8174 56.5434C76.7442 56.305 76.6743 56.0771 76.6065 55.8614C74.9557 50.6088 73.9371 41.0328 73.218 31.9717C72.9036 28.0099 73.9116 24.2233 75.2439 21.2726C75.9127 19.7919 76.6751 18.4943 77.4231 17.4625C77.86 16.8597 78.3187 16.3103 78.7776 15.8625C78.2271 13.7131 77.6911 9.79092 79.617 6.27915C80.0183 5.54708 80.9373 5.27908 81.6694 5.68054Z" fill="#1F66FB"/>
<path fill-rule="evenodd" clip-rule="evenodd" d="M163.254 66.6227C162.902 67.3081 162.229 68.1561 161.271 68.6678C160.276 69.199 158.814 69.4565 156.728 68.4861C155.971 68.1339 155.072 68.4622 154.72 69.2193C154.367 69.9764 154.696 70.8754 155.453 71.2276C158.337 72.5694 160.802 72.3453 162.695 71.335C162.915 71.2176 163.125 71.0908 163.325 70.9565C163.326 69.4967 163.302 68.0507 163.254 66.6227Z" fill="#0455FF"/>
<path fill-rule="evenodd" clip-rule="evenodd" d="M91.0348 5.54575C90.2248 5.32358 89.8367 5.32252 89.7273 5.34356C88.9074 5.50124 88.1148 4.9644 87.9571 4.1445C87.7996 3.3246 88.3364 2.5321 89.1562 2.37443C89.9862 2.21483 90.9447 2.3858 91.8345 2.62987C92.7771 2.8884 93.8734 3.29743 95.0773 3.80706C97.4868 4.82715 100.484 6.31824 103.817 8.02173C104.903 8.57669 106.027 9.15524 107.181 9.74969C113.155 12.8254 119.954 16.3266 126.625 19.1856C128.766 20.1035 131.118 20.141 131.781 20.0673C132.611 19.9752 133.358 20.573 133.45 21.4029C133.543 22.2327 132.945 22.9803 132.115 23.0724C131.043 23.1915 128.148 23.1281 125.433 21.9647C118.655 19.0593 111.743 15.4997 105.771 12.4249C104.624 11.834 103.511 11.261 102.441 10.714C99.1022 9.00756 96.195 7.56356 93.8985 6.59136C92.7494 6.10486 91.7922 5.75346 91.0348 5.54575Z" fill="#C7FFFE"/>
<g style="mix-blend-mode:overlay">
<path d="M118.016 94.6377L132.458 94.8198C133.232 94.8297 133.75 95.7181 133.482 96.5744C132.19 100.689 128.75 103.498 124.935 103.45C121.119 103.401 117.877 100.508 116.871 96.3647C116.662 95.5024 117.241 94.6278 118.016 94.6377Z" fill="#204AFF"/>
</g>
<g style="mix-blend-mode:overlay">
<path d="M142.123 95.0241L154.962 94.6095C155.738 94.5833 156.274 95.4449 156.019 96.3109C154.798 100.472 152.482 103.242 148.656 103.371C144.83 103.5 142.088 100.882 141.007 96.7987C140.782 95.9489 141.347 95.0502 142.123 95.0241Z" fill="#204AFF"/>
</g>
<g style="mix-blend-mode:overlay">
<path d="M130.116 110.521L143.413 110.715C144.188 110.698 144.724 111.566 144.471 112.43C143.257 116.584 141.032 118.985 137.211 119.072C133.391 119.159 130.089 116.386 129.004 112.286C128.777 111.432 129.341 110.538 130.116 110.521Z" fill="#204AFF"/>
</g>
</g>
</g>
<defs>
<radialGradient id="paint0_radial_1595_5633" cx="0" cy="0" r="1" gradientUnits="userSpaceOnUse" gradientTransform="translate(133.284 18.9142) rotate(119.366) scale(133.976 179.711)">
<stop stop-color="#26FF55"/>
<stop offset="0.569543" stop-color="#268AFF"/>
<stop offset="0.987801" stop-color="#FC55FF"/>
</radialGradient>
<radialGradient id="paint1_radial_1595_5633" cx="0" cy="0" r="1" gradientUnits="userSpaceOnUse" gradientTransform="translate(133.284 18.9142) rotate(119.366) scale(133.976 179.711)">
<stop stop-color="#26FF55"/>
<stop offset="0.569543" stop-color="#268AFF"/>
<stop offset="0.987801" stop-color="#FC55FF"/>
</radialGradient>
<clipPath id="clip0_1595_5633">
<rect width="185" height="180" fill="white" transform="translate(0.5 0.375)"/>
</clipPath>
<clipPath id="clip1_1595_5633">
<rect width="143.077" height="180" fill="white" transform="translate(21.4609 0.375)"/>
</clipPath>
</defs>
</svg>
