<svg width="186" height="145" viewBox="0 0 186 145" fill="none" xmlns="http://www.w3.org/2000/svg">
<path fill-rule="evenodd" clip-rule="evenodd" d="M63.4648 137.267C63.4648 133.185 66.7945 129.856 70.876 129.856H82.476C86.5574 129.856 89.8871 133.185 89.8871 137.267C89.8871 141.348 86.5574 144.678 82.476 144.678H70.876C66.7945 144.678 63.4648 141.348 63.4648 137.267Z" fill="#F49000"/>
<path fill-rule="evenodd" clip-rule="evenodd" d="M95.4727 137.267C95.4727 133.185 98.8023 129.856 102.884 129.856H114.484C118.565 129.856 121.895 133.185 121.895 137.267C121.895 141.348 118.565 144.678 114.484 144.678H102.884C98.8023 144.678 95.4727 141.348 95.4727 137.267Z" fill="#F49000"/>
<path d="M13.5185 109.233L55.3 33.6185C57.5556 29.6444 63.0334 29 66.1482 32.3296C81.2926 48.5481 84.3 73.1444 73.3445 93.1222C62.3889 113.1 39.9408 123.518 18.1371 119.222C13.626 118.363 11.263 113.315 13.5185 109.233Z" fill="#58CC02"/>
<path d="M171.839 109.233L130.057 33.6185C127.802 29.537 122.324 28.8926 119.102 32.2222C103.957 48.4407 100.95 73.037 111.905 93.0148C122.861 112.993 145.309 123.411 167.113 119.115C171.731 118.363 174.094 113.315 171.839 109.233Z" fill="#58CC02"/>
<path fill-rule="evenodd" clip-rule="evenodd" d="M61.8519 2.14817C76.8889 8.48521 87.2 11.7074 92.7852 11.7074C98.3704 11.7074 108.467 8.59262 123.289 2.25558C133.063 -1.93331 144.448 2.68521 148.637 12.4593C149.604 14.8222 150.141 17.4 150.141 19.9778V80.0186C150.141 111.811 124.363 137.589 92.5704 137.589C60.7778 137.482 35 111.811 35 80.0186V19.8704C35 9.23706 43.5926 0.64447 54.3333 0.64447C56.9111 0.64447 59.3815 1.18151 61.8519 2.14817Z" fill="#58CC02"/>
<path d="M88.274 98.2778C88.4888 97.5259 87.9518 96.8815 87.1999 96.8815H72.6999C71.9481 96.8815 71.411 97.6333 71.6259 98.2778C72.8073 101.607 76.137 103.97 79.8962 103.97C83.6555 103.97 87.0925 101.607 88.274 98.2778ZM112.441 96.8815H97.9407C97.1888 96.8815 96.6518 97.6333 96.8666 98.2778C98.0481 101.607 101.378 103.97 105.137 103.97C108.896 103.97 112.333 101.607 113.515 98.2778C113.73 97.6333 113.193 96.8815 112.441 96.8815ZM99.7666 109.019H85.2666C84.5148 109.019 83.9777 109.77 84.1925 110.415C85.374 113.744 88.7036 116.107 92.4629 116.107C96.2222 116.107 99.6592 113.744 100.841 110.415C101.163 109.77 100.626 109.019 99.7666 109.019Z" fill="#89E219"/>
<path d="M65.1787 11.1704L82.5787 30.0741C83.5454 31.0408 83.1157 32.6519 81.9343 33.2963C75.9194 35.9815 68.8306 34.4778 64.3194 29.4296C59.8083 24.3815 59.0565 17.1852 62.2787 11.4926C63.0306 10.3111 64.212 10.2037 65.1787 11.1704Z" fill="#89E219"/>
<path fill-rule="evenodd" clip-rule="evenodd" d="M80.2166 27.7111C86.5536 34.1556 97.724 34.1556 104.705 27.7111C111.687 21.2667 103.631 65.0889 103.631 64.8741C103.631 64.8741 99.8722 64.7667 92.3536 64.8741C90.3129 64.8741 86.6611 64.8741 81.5055 64.8741C76.4573 35.8741 76.0277 23.4148 80.2166 27.7111Z" fill="#89E219"/>
<path d="M55.6217 15.6815L72.5921 34.6926C73.5587 35.6593 73.1291 37.2704 71.9476 37.9148C65.9328 40.6 58.8439 39.0963 54.3328 34.0481C49.8217 29 49.0698 21.8037 52.3995 16.1111C53.0439 14.8222 54.655 14.7148 55.6217 15.6815Z" fill="#89E219"/>
<path fill-rule="evenodd" clip-rule="evenodd" d="M63.5692 20.9445H64.2137C76.7803 20.9445 86.8766 31.1482 86.8766 43.6074V55.637C86.8766 68.2037 76.6729 78.3 64.2137 78.3H63.5692C51.0025 78.3 40.9063 68.0963 40.9063 55.637V43.7148C40.9062 31.1482 51.0025 20.9445 63.5692 20.9445Z" fill="#89E219"/>
<path d="M119.743 11.1704L102.665 30.0741C101.699 31.0408 102.128 32.6519 103.31 33.2963C109.325 35.9815 116.413 34.4778 120.925 29.4296C125.436 24.3815 126.188 17.1852 122.858 11.4926C122.213 10.3111 120.602 10.2037 119.743 11.1704Z" fill="#89E219"/>
<path d="M129.626 15.6815L112.548 34.6926C111.581 35.6593 112.011 37.2704 113.193 37.9148C119.207 40.6 126.296 39.0963 130.807 34.0481C135.318 29 136.07 21.8037 132.741 16.1111C132.204 14.8222 130.593 14.7148 129.626 15.6815Z" fill="#89E219"/>
<path fill-rule="evenodd" clip-rule="evenodd" d="M120.816 20.9445H121.461C134.027 20.9445 144.124 31.1482 144.124 43.6074V55.637C144.124 68.2037 133.92 78.3 121.461 78.3H120.924C108.464 78.3 98.368 68.2037 98.2606 55.7445L98.1532 43.7148C98.0458 31.1482 108.142 20.9445 120.816 20.9445Z" fill="#89E219"/>
<path fill-rule="evenodd" clip-rule="evenodd" d="M92.6766 55.7444C97.0804 55.7444 100.732 59.3963 100.732 63.8V66.3778C100.732 70.7815 97.0804 74.4333 92.6766 74.4333C88.2729 74.4333 84.6211 70.7815 84.6211 66.3778V63.8C84.6211 59.3963 88.2729 55.7444 92.6766 55.7444Z" fill="#F49000"/>
<path d="M81.5078 64.337C82.4745 59.3963 87.2004 55.7444 92.7856 55.7444C98.0486 55.7444 102.667 59.5037 103.634 64.337V64.7667C103.634 65.0889 103.526 65.3037 103.204 65.1963L92.7856 67.0222C92.5708 67.0222 92.5708 67.0222 92.356 67.0222L81.9374 65.1963C81.6152 65.1963 81.5078 65.0889 81.5078 64.7667V64.337Z" fill="#FFC200"/>
<path d="M95.041 61.0074C94.8262 61.0074 94.7187 61.0074 94.5039 60.9C93.1076 60.3629 91.8187 60.3629 90.6373 60.9C89.778 61.2222 88.9187 60.7926 88.5965 60.0407C88.2743 59.1815 88.7039 58.3222 89.4558 58C91.3891 57.2481 93.4299 57.2481 95.578 58C96.4373 58.3222 96.8669 59.1815 96.5447 60.0407C96.3299 60.5778 95.6854 61.0074 95.041 61.0074Z" fill="#FFDE00"/>
<path fill-rule="evenodd" clip-rule="evenodd" d="M64.7498 29.1074C73.4498 29.1074 80.5387 36.1963 80.5387 44.8963V54.4556C80.5387 63.1556 73.4498 70.2445 64.7498 70.2445C56.0498 70.2445 48.9609 63.1556 48.9609 54.4556V44.8963C48.9609 36.1963 56.0498 29.1074 64.7498 29.1074Z" fill="white"/>
<path fill-rule="evenodd" clip-rule="evenodd" d="M67.2197 38.1296C71.3012 38.1296 74.6308 41.4593 74.6308 45.5408V53.7037C74.6308 57.7852 71.3012 61.1148 67.2197 61.1148C63.1382 61.1148 59.8086 57.7852 59.8086 53.7037V45.5408C59.8086 41.4593 63.1382 38.1296 67.2197 38.1296Z" fill="#4B4B4B"/>
<path d="M60.9896 47.3667C63.659 47.3667 65.8229 45.2027 65.8229 42.5333C65.8229 39.864 63.659 37.7 60.9896 37.7C58.3202 37.7 56.1562 39.864 56.1562 42.5333C56.1562 45.2027 58.3202 47.3667 60.9896 47.3667Z" fill="white"/>
<path fill-rule="evenodd" clip-rule="evenodd" d="M120.281 29.1074C128.981 29.1074 136.07 36.1963 136.07 44.8963V54.4556C136.07 63.1556 128.981 70.2445 120.281 70.2445C111.581 70.2445 104.492 63.1556 104.492 54.4556V44.8963C104.492 36.1963 111.581 29.1074 120.281 29.1074Z" fill="white"/>
<path fill-rule="evenodd" clip-rule="evenodd" d="M117.81 38.1296C121.891 38.1296 125.221 41.4593 125.221 45.5408V53.7037C125.221 57.7852 121.891 61.1148 117.81 61.1148C113.728 61.1148 110.398 57.7852 110.398 53.7037V45.5408C110.398 41.4593 113.728 38.1296 117.81 38.1296Z" fill="#4B4B4B"/>
<path d="M110.72 47.3667C113.389 47.3667 115.553 45.2027 115.553 42.5333C115.553 39.864 113.389 37.7 110.72 37.7C108.051 37.7 105.887 39.864 105.887 42.5333C105.887 45.2027 108.051 47.3667 110.72 47.3667Z" fill="white"/>
</svg>
