<svg width="186" height="163" viewBox="0 0 186 163" fill="none" xmlns="http://www.w3.org/2000/svg">
<g clip-path="url(#clip0_1595_5382)">
<mask id="mask0_1595_5382" style="mask-type:alpha" maskUnits="userSpaceOnUse" x="78" y="4" width="104" height="89">
<path d="M181.273 4.56689H78.0273V92.1199H181.273V4.56689Z" fill="white"/>
</mask>
<g mask="url(#mask0_1595_5382)">
<path d="M174.303 -1.77197H84.9966C81.1473 -1.77197 78.0273 1.34836 78.0273 5.19748V78.8114C78.0273 82.6608 81.1473 85.7807 84.9966 85.7807H174.303C178.152 85.7807 181.273 82.6603 181.273 78.8114V5.19748C181.273 1.34835 178.152 -1.77197 174.303 -1.77197Z" fill="#F7F7F7"/>
<path d="M103.359 71.7177C144.824 71.7177 155.245 38.2948 159.845 23.1887" stroke="#B5E2F7" stroke-width="1.94466" stroke-linecap="round" stroke-linejoin="round"/>
<path fill-rule="evenodd" clip-rule="evenodd" d="M156.386 24.066C155.97 23.9548 155.724 23.5281 155.835 23.113C155.871 22.9792 155.942 22.8575 156.041 22.7603L160.56 18.3101C160.867 18.0083 161.36 18.0117 161.662 18.3177C161.755 18.4123 161.823 18.5292 161.858 18.6574L163.543 24.767C163.657 25.1813 163.413 25.6098 162.998 25.7239C162.865 25.7607 162.724 25.7612 162.59 25.7254" fill="#B5E2F7"/>
<path d="M96.6248 74.866H167.146C167.577 74.866 167.926 75.2147 167.926 75.6446C167.926 76.0741 167.577 76.4227 167.146 76.4227H95.8454C95.4151 76.4227 95.0664 76.0741 95.0664 75.6446V16.0583C95.0664 15.6285 95.4151 15.28 95.8454 15.28C96.2757 15.28 96.6248 15.6285 96.6248 16.0583V74.866Z" fill="#E5E5E5"/>
</g>
<path d="M181.995 0.875H77.581C75.6445 0.875 74.0742 2.44295 74.0742 4.37712V5.15535C74.0742 7.08952 75.6445 8.65747 77.581 8.65747H181.995C183.931 8.65747 185.501 7.08952 185.501 5.15535V4.37712C185.501 2.44295 183.931 0.875 181.995 0.875Z" fill="#1CB0F6"/>
<path d="M47.7469 132.891C47.7469 130.941 46.1726 129.432 44.284 129.432H38.8692C36.9803 129.432 35.4062 131.004 35.4062 132.891C35.4062 134.84 36.9803 136.35 38.8692 136.35H44.284C46.1726 136.412 47.7469 134.84 47.7469 132.891Z" fill="#F49000"/>
<path d="M61.7899 136.35C63.4902 136.35 64.9382 135.155 65.19 133.457C65.5047 131.57 64.2453 129.747 62.3568 129.432C61.979 129.37 61.4753 128.93 60.9084 128.238C59.7122 126.728 57.5714 126.414 55.9975 127.609C54.4863 128.804 54.1717 130.942 55.3678 132.514C57.0677 134.652 59.0198 135.973 61.1602 136.287C61.4121 136.35 61.6012 136.35 61.7899 136.35Z" fill="#F49000"/>
<path d="M5.69152 112.768L29.8689 80.5715C31.191 78.8737 33.7725 78.8737 35.0317 80.6347C41.0131 89.1237 40.8242 100.631 34.4021 109.184C27.98 117.736 16.9617 121.069 7.13965 117.673C5.12483 116.982 4.36931 114.529 5.69152 112.768Z" fill="#4B4B4B"/>
<path fill-rule="evenodd" clip-rule="evenodd" d="M7.45326 110.379L13.9383 118.931C11.6717 118.868 9.40507 118.428 7.13843 117.673C5.12366 116.982 4.36811 114.466 5.62734 112.768L7.45326 110.379Z" fill="#58CC02"/>
<path d="M47.3705 95.5383L82.1883 75.0378C84.0772 73.906 86.4699 74.975 86.9105 77.113C89.1773 87.2375 84.581 97.865 75.3884 103.336C66.1962 108.807 54.6741 107.675 46.8668 100.758C45.2297 99.2482 45.4816 96.6701 47.3705 95.5383Z" fill="#4B4B4B"/>
<path d="M78.8867 82.7938L108.276 49.0869" stroke="#A56644" stroke-width="2.00674" stroke-linecap="round"/>
<path d="M52.7848 59.568C46.5518 63.9699 42.1446 66.4224 39.563 66.9885C37.0445 67.5546 32.0705 67.0513 24.704 65.6049C19.793 64.6619 15.0708 67.806 14.1264 72.7108C13.8745 73.9057 13.8745 75.1634 14.1264 76.2955L19.9818 103.776C23.067 118.302 37.3593 127.609 51.9037 124.528C66.4477 121.446 75.7031 107.172 72.6179 92.5825L66.7623 65.0392C65.7553 60.1341 60.9072 57.0527 56.059 58.0589C54.8629 58.3735 53.7922 58.8136 52.7848 59.568Z" fill="#58CC02"/>
<path d="M34.7792 73.2768L26.783 67.4286C26.2793 67.0512 25.5238 67.3031 25.3349 67.8687C24.8312 69.3783 24.8942 70.9501 25.3978 72.3965L22.6905 70.51C22.1868 70.1326 21.4313 70.3841 21.2424 70.9501C20.8016 72.3965 20.8016 73.9688 21.2424 75.352C19.0387 77.8046 18.0313 81.2002 18.7239 84.7218L19.9202 90.1926C21.1164 95.9153 26.783 99.6255 32.5126 98.3679L32.7644 98.3047C36.9828 97.4244 40.068 94.0916 40.9494 90.1298C41.7681 89.9412 42.9642 89.6897 44.5382 89.3751C45.231 89.2496 46.364 88.9981 47.9383 88.6835C50.3306 91.9536 54.4863 93.7142 58.7048 92.8339L59.0194 92.7711C64.7491 91.5762 68.4007 85.9167 67.2046 80.194L66.0084 74.7232C65.2528 71.2016 62.8601 68.4976 59.8378 67.1771C59.6491 65.7308 59.0826 64.2844 58.0752 63.2154C57.6342 62.7125 56.8786 62.838 56.564 63.4041L54.8641 66.2968C54.7382 64.7877 54.1085 63.2782 53.1011 62.1464C52.6605 61.6435 52.0936 61.7063 51.779 62.2724L46.364 71.4535C46.3012 71.5162 46.3012 71.579 46.238 71.6417C43.9085 74.9119 38.9976 75.8553 35.2829 73.7169C35.094 73.4655 34.9681 73.4027 34.7792 73.2768Z" fill="#89E219"/>
<path d="M53.6675 70.3213C49.7008 71.1388 47.1195 75.1005 48.001 79.0622L48.9453 83.4013C49.764 87.489 53.6675 90.0043 57.6341 89.1868C61.6007 88.3693 64.1821 84.4076 63.3006 80.4458L62.3563 76.1068C61.5376 72.0191 57.6341 69.5038 53.6675 70.3213Z" fill="white"/>
<path d="M53.5426 75.3525C51.6536 75.7295 50.4574 77.616 50.8352 79.5025L51.6536 83.2128C52.0314 85.0993 53.9204 86.2942 55.8093 85.9168C57.6979 85.5394 58.8944 83.6529 58.5166 81.7664L57.6979 78.0566C57.2573 76.1069 55.4315 74.912 53.5426 75.3525Z" fill="#4B4B4B"/>
<path d="M51.5129 80.3564C50.2609 80.3564 49.2461 79.3428 49.2461 78.0925C49.2461 76.8422 50.2609 75.8286 51.5129 75.8286C52.7648 75.8286 53.7796 76.8422 53.7796 78.0925C53.7796 79.3428 52.7648 80.3564 51.5129 80.3564Z" fill="white"/>
<path d="M28.2964 75.7296C24.3298 76.5471 21.7484 80.5088 22.6299 84.4705L23.5743 88.8096C24.4557 92.8341 28.3594 95.3494 32.326 94.5323C36.2926 93.7148 38.874 89.753 37.9925 85.7913L37.0481 81.4523C36.1667 77.4278 32.263 74.8493 28.2964 75.7296Z" fill="white"/>
<path d="M30.4371 80.2572C28.5483 80.6345 27.352 82.521 27.7298 84.4076L28.5483 88.1178C28.926 90.0043 30.8149 91.1992 32.7038 90.8218C34.5926 90.4445 35.7889 88.558 35.4111 86.6714L34.5926 82.9612C34.1519 81.0119 32.326 79.817 30.4371 80.2572Z" fill="#4B4B4B"/>
<path d="M28.4776 85.2075C27.2258 85.2075 26.2109 84.1939 26.2109 82.9436C26.2109 81.6933 27.2258 80.6797 28.4776 80.6797C29.7294 80.6797 30.7442 81.6933 30.7442 82.9436C30.7442 84.1939 29.7294 85.2075 28.4776 85.2075Z" fill="white"/>
<path d="M56.8771 90.8847C58.6401 89.7526 60.7809 88.7463 63.4251 87.9292C64.8735 87.4887 65.755 85.9796 65.3772 84.4704L64.1807 79.8799C58.1996 81.389 53.4773 83.6529 50.2031 86.5456L53.7292 90.5073C54.4848 91.4504 55.87 91.5763 56.8771 90.8847Z" fill="#8EE000"/>
<path d="M36.796 94.7205L38.5589 89.0609C34.3405 87.7401 29.1146 87.6146 23.0703 88.6208L24.0148 94.0289C24.2037 95.1606 25.274 95.9154 26.4073 95.7895C29.6813 95.3493 32.5146 95.4121 34.9072 95.9154C35.7257 96.0409 36.5441 95.538 36.796 94.7205Z" fill="#8EE000"/>
<path d="M43.0904 83.4014C41.0757 83.8415 39.7535 85.854 40.1942 87.8664L40.4461 89.0609C40.8868 91.0734 42.9017 92.3938 44.9162 91.9536C46.9311 91.5135 48.2531 89.5011 47.8126 87.489L47.5607 86.2941C47.1202 84.2817 45.1053 82.9612 43.0904 83.4014Z" fill="#F49000"/>
<path d="M49.0717 86.2315C48.1274 84.0303 45.6088 82.8354 43.0902 83.4015C40.6977 83.9048 38.9348 86.0428 38.9977 88.3694L39.0607 88.5581C39.1237 88.7468 39.1866 88.7468 39.3126 88.7468L44.2235 88.5581C44.3495 88.5581 44.3495 88.5581 44.4127 88.4954L49.0085 86.6716C49.1976 86.6716 49.1976 86.6088 49.1976 86.4202L49.0717 86.2315Z" fill="#FFC200"/>
<path d="M42.3966 86.0423C42.5225 86.0423 42.6484 85.9795 42.7744 85.9167C43.3413 85.5394 43.9077 85.4134 44.5374 85.5394C44.9784 85.6021 45.3557 85.3507 45.4189 84.9105C45.4817 84.4704 45.2302 84.093 44.7893 84.0302C43.845 83.8415 42.9003 84.0302 42.0188 84.5963C41.6414 84.7846 41.5782 85.2879 41.7673 85.6021C41.8933 85.9167 42.1447 86.0423 42.3966 86.0423Z" fill="#FFDE00"/>
<path d="M70.1128 88.885L73.2541 103.647L23.372 114.236L20.2305 99.4747L70.1128 88.885Z" fill="white"/>
<path fill-rule="evenodd" clip-rule="evenodd" d="M49.1955 93.3369L41.1992 95.0347C41.514 96.4183 42.8362 97.2359 44.1586 96.9844L47.2438 96.3556C48.6286 96.041 49.4473 94.7205 49.1955 93.3369Z" fill="#4B4B4B"/>
<path fill-rule="evenodd" clip-rule="evenodd" d="M46.8681 94.469L43.783 95.0978L43.2165 100.883C43.0274 102.769 44.4126 104.467 46.3643 104.656C46.7421 104.719 47.0568 104.656 47.4346 104.593C49.3235 104.216 50.5197 102.329 50.0791 100.505C50.0164 100.191 49.8904 99.8139 49.7013 99.4997L46.8681 94.469Z" fill="#4B4B4B"/>
<path fill-rule="evenodd" clip-rule="evenodd" d="M70.8546 81.7036L47.2439 102.392L18.4704 96.3555C18.1556 96.2923 17.7778 96.481 17.7148 96.8584C17.7148 96.9216 17.7148 96.9843 17.7148 97.1098L21.6185 123.333C21.8074 124.716 23.1296 125.659 24.4518 125.471C24.5147 125.471 24.5147 125.471 24.5777 125.471L72.9954 115.661C74.2547 115.409 75.1362 114.214 75.0103 112.957L71.9252 82.1437C71.862 81.8291 71.6101 81.5149 71.2323 81.5776C71.1064 81.5776 70.9805 81.6404 70.8546 81.7036Z" fill="#4B4B4B"/>
<path fill-rule="evenodd" clip-rule="evenodd" d="M68.1497 104.656L59.8386 105.977C59.7759 105.977 59.7127 105.977 59.6499 105.977C58.9571 105.977 58.3906 105.411 58.3906 104.719L58.6425 92.4567L69.5349 82.8982C69.5349 82.961 69.5977 83.0241 69.5977 83.0869L69.2831 103.398C69.2199 104.027 68.7793 104.53 68.1497 104.656Z" fill="#1899D6"/>
<path fill-rule="evenodd" clip-rule="evenodd" d="M32.1987 112.831C32.1987 113.46 31.695 113.963 31.0654 114.026L23.0063 114.843C22.3137 114.906 21.6841 114.403 21.6211 113.711C21.6211 113.648 21.6211 113.586 21.6211 113.586L21.8729 97.0471L32.5135 99.2478L32.1987 112.831Z" fill="#1899D6"/>
<path fill-rule="evenodd" clip-rule="evenodd" d="M42.5648 48.541L30.2243 51.1819C29.9095 51.2451 29.6577 51.5593 29.7207 51.9367L33.1206 67.909C33.1836 68.2236 33.4983 68.4751 33.8761 68.4123L46.2168 65.771C46.5314 65.7083 46.7833 65.3937 46.7205 65.0167L43.3204 49.0439C43.2576 48.7297 42.9426 48.4779 42.5648 48.541Z" fill="#4B4B4B"/>
<path fill-rule="evenodd" clip-rule="evenodd" d="M35.5752 47.4724L26.6346 49.3589C26.1309 49.4844 25.8161 49.9877 25.8791 50.4907C26.005 50.994 26.5087 51.3082 27.0124 51.2454L35.953 49.3589C36.4566 49.233 36.7715 48.7301 36.7085 48.2268C36.6455 47.6611 36.1419 47.3465 35.5752 47.4724Z" fill="#FFD900"/>
<path fill-rule="evenodd" clip-rule="evenodd" d="M49.4267 45.837L22.3529 51.5592C21.4715 51.7479 20.9678 52.5655 21.1567 53.4458C21.3456 54.326 22.1641 54.8294 23.0455 54.6407L50.1191 48.9184C51.0006 48.7297 51.5043 47.9122 51.3152 47.0319C51.1265 46.2144 50.245 45.6483 49.4267 45.837Z" fill="#4B4B4B"/>
<path fill-rule="evenodd" clip-rule="evenodd" d="M35.1967 45.6483C34.3152 45.837 33.8115 46.6545 34.0004 47.5348L34.2523 48.7925C34.4412 49.6728 35.2597 50.1761 36.1411 49.9874C37.0226 49.7987 37.5263 48.9812 37.3374 48.1009L37.0856 46.8432C36.8967 45.9629 36.0781 45.4596 35.1967 45.6483Z" fill="#4B4B4B"/>
<path fill-rule="evenodd" clip-rule="evenodd" d="M26.4556 54.0673C24.8979 53.2908 23.0375 53.8889 22.2133 55.4074L19.9572 59.8954C19.8081 60.1797 19.8943 60.5731 20.2273 60.7622L24.7141 63.0207C24.9982 63.1696 25.3917 63.0839 25.5803 62.7508L27.8365 58.2628C28.5722 56.7537 28.0133 54.8434 26.4556 54.0673Z" fill="#FFD900"/>
<path d="M24.0981 62.7675L22.9609 62.1715L24.3339 59.479C24.4831 59.1951 24.8676 59.0203 25.2008 59.209C25.4851 59.3579 25.6598 59.7419 25.471 60.075L24.0981 62.7675Z" fill="#FFC800"/>
<path d="M21.3047 61.3171L23.8315 56.4017C23.9807 56.1179 24.3652 55.9435 24.6985 56.1322C24.9827 56.2811 25.1574 56.6651 24.9686 56.9977L22.4418 61.9132L21.3047 61.3171Z" fill="#FFC800"/>
<path fill-rule="evenodd" clip-rule="evenodd" d="M27.8322 50.2387L25.9433 50.05L24.6211 55.5213L26.447 55.9614L27.8322 50.2387Z" fill="#FFD900"/>
<path d="M19.1413 58.9169C20.5895 58.9169 21.9117 58.0362 23.1079 56.3384C23.2968 56.0242 23.2339 55.6468 22.982 55.4581C22.6672 55.2694 22.2894 55.3322 22.1006 55.5841C21.1561 56.9673 20.1487 57.6593 19.1413 57.6593C18.7636 57.6593 18.5117 57.9107 18.5117 58.2881C18.5117 58.6651 18.8265 58.9169 19.1413 58.9169Z" fill="#FFD900"/>
<path fill-rule="evenodd" clip-rule="evenodd" d="M86.3058 72.6816L83.4344 72.5955C82.1989 72.5586 81.1673 73.5234 81.1299 74.7507C81.1225 74.9944 81.1554 75.238 81.228 75.4714L83.539 82.9379C83.8774 84.0302 85.0436 84.6439 86.1438 84.3075C86.9342 84.0663 87.5065 83.3829 87.6012 82.5662L88.4614 75.1584C88.6029 73.9385 87.7222 72.8359 86.4945 72.6952C86.4318 72.6878 86.3686 72.6833 86.3058 72.6816Z" fill="#58CC02"/>
<path d="M84.614 158.082H23.4035C22.0718 158.082 20.9922 159.161 20.9922 160.493C20.9922 161.825 22.0718 162.904 23.4035 162.904H84.614C85.9457 162.904 87.0253 161.825 87.0253 160.493C87.0253 159.161 85.9457 158.082 84.614 158.082Z" fill="#E5E5E5"/>
<path d="M20.9922 148.936V155.312C20.9922 156.842 19.7524 158.082 18.2229 158.082H-16.6139C-18.1433 158.082 -19.3831 156.842 -19.3831 155.312V148.936C-19.3831 147.407 -18.1433 146.167 -16.6139 146.167H18.2229C19.7524 146.167 20.9922 147.407 20.9922 148.936Z" fill="#A560E8"/>
<mask id="mask1_1595_5382" style="mask-type:alpha" maskUnits="userSpaceOnUse" x="35" y="136" width="41" height="13">
<path d="M75.3789 139.174V145.55C75.3789 147.08 74.1391 148.32 72.6097 148.32H37.7728C36.2434 148.32 35.0036 147.08 35.0036 145.55V139.174C35.0036 137.645 36.2434 136.405 37.7728 136.405H72.6097C74.1391 136.405 75.3789 137.645 75.3789 139.174Z" fill="white"/>
</mask>
<g mask="url(#mask1_1595_5382)">
<path d="M46.7072 141.905C47.0868 141.905 47.3945 142.212 47.3945 142.592C47.3945 142.972 47.0868 143.279 46.7072 143.279H38.4469C38.0673 143.279 37.7595 142.972 37.7595 142.592C37.7595 142.212 38.0673 141.905 38.4469 141.905H46.7072Z" fill="#B77FEC"/>
<path d="M51.2931 141.905C51.6727 141.905 51.9805 142.212 51.9805 142.592C51.9805 142.972 51.6727 143.279 51.2931 143.279H49.4562C49.0765 143.279 48.7688 142.972 48.7688 142.592C48.7688 142.212 49.0765 141.905 49.4562 141.905H51.2931Z" fill="#B77FEC"/>
<path d="M70.5626 141.904C70.9423 141.904 71.25 142.212 71.25 142.591C71.25 142.971 70.9423 143.279 70.5626 143.279H65.514C65.1344 143.279 64.8266 142.971 64.8266 142.591C64.8266 142.212 65.1344 141.904 65.514 141.904H70.5626Z" fill="#B77FEC"/>
</g>
<path d="M34.957 128.471V133.472C34.957 135.001 33.7172 136.241 32.1878 136.241H-14.5783C-16.1077 136.241 -17.3475 135.001 -17.3475 133.472V128.471C-17.3475 126.941 -16.1077 125.701 -14.5783 125.701H32.1878C33.7172 125.701 34.957 126.941 34.957 128.471Z" fill="#00A0F5"/>
<path opacity="0.25" d="M37.9883 147.632V158.172H33.859V147.632H37.9883Z" fill="white"/>
<path opacity="0.25" d="M74.2344 147.632V158.172H65.517V147.632H74.2344Z" fill="white"/>
</g>
<defs>
<clipPath id="clip0_1595_5382">
<rect width="185" height="162.029" fill="white" transform="translate(0.5 0.875)"/>
</clipPath>
</defs>
</svg>
