<svg width="184" height="220" viewBox="0 0 184 220" fill="none" xmlns="http://www.w3.org/2000/svg">
<path d="M144.323 43.879C133.528 43.879 124.776 52.6314 124.776 63.4269V93.5092C124.776 104.306 133.528 113.057 144.323 113.057H158.064C159.604 113.057 161.081 112.445 162.17 111.356C163.259 110.266 163.871 108.789 163.871 107.249V63.4269C163.871 52.6314 155.12 43.879 144.323 43.879Z" fill="#EA2B2B"/>
<path d="M91.4991 197.394C92.2059 200.511 91.4194 203.486 89.1387 206.321" stroke="#F49000" stroke-width="11.979" stroke-linecap="round" stroke-linejoin="round"/>
<path d="M40.7329 43.8379H133.3C143.725 43.8379 152.176 52.289 152.176 62.7139V158.195C152.176 168.62 143.725 177.071 133.3 177.071H40.7329C30.308 177.071 21.8569 168.62 21.8569 158.195V62.7139C21.8569 52.289 30.308 43.8379 40.7329 43.8379Z" fill="#FF4B4B"/>
<path d="M85.2873 43.8379H39.1496C28.5988 43.8379 20.0463 52.8707 20.0463 64.0137V156.896C20.0463 168.039 28.5988 177.072 39.1496 177.072H85.2873C95.8381 177.072 104.391 168.039 104.391 156.896V64.0137C104.391 52.8707 95.8381 43.8379 85.2873 43.8379Z" fill="#FF4B4B"/>
<path d="M25.3529 53.5866L32.8604 50.7028C33.7504 50.3951 34.7251 50.4453 35.5787 50.8428C36.4324 51.2403 37.0982 51.9539 37.4355 52.8331L43.6496 69.0398C43.9945 69.9386 43.9684 70.9376 43.5767 71.8171C43.1851 72.6965 42.4602 73.3844 41.5614 73.7294L22.2243 81.1581V64.0137C22.2243 60.215 23.3317 56.6033 25.3529 53.5866Z" fill="#1CB0F6" stroke="#FFDE00" stroke-width="4.356"/>
<path d="M72.076 76.8846L72.0796 76.881C76.4274 73.3628 82.8046 74.0347 86.3237 78.3825C89.8456 82.7339 89.1746 89.1166 84.825 92.6403L77.7941 98.3365L77.7896 98.3401C73.4418 101.859 67.0646 101.187 63.5464 96.8395C60.0246 92.4881 60.6956 86.1054 65.0451 82.5808L72.076 76.8846Z" fill="white" stroke="#F49000" stroke-width="4.356"/>
<path d="M121.406 61.3948C121.406 51.6984 129.266 43.8379 138.963 43.8379C148.659 43.8379 156.52 51.6984 156.52 61.3948V159.514C156.52 169.21 148.659 177.071 138.963 177.071C129.266 177.071 121.406 169.21 121.406 159.514V61.3948Z" fill="#EA2B2B"/>
<path d="M149.153 109.633L160.752 112.311C164.854 113.258 167.412 117.351 166.465 121.453L158.488 156.004C157.541 160.107 153.448 162.664 149.346 161.717L137.747 159.04C133.645 158.092 131.087 153.999 132.034 149.897L140.011 115.346C140.958 111.243 145.051 108.686 149.153 109.633Z" fill="#CCF8F7"/>
<path d="M162.941 121.231C155.348 124.52 150.269 126.481 147.705 127.112C145.51 127.654 143.545 126.857 141.805 124.72C141.677 124.562 141.506 124.443 141.313 124.377C141.12 124.311 140.912 124.301 140.714 124.347C140.515 124.393 140.333 124.494 140.189 124.639C140.045 124.783 139.945 124.965 139.899 125.164L134.375 149.34C133.925 151.308 134.274 153.374 135.346 155.085C136.417 156.796 138.124 158.012 140.091 158.466L147.838 160.254C149.806 160.709 151.874 160.363 153.587 159.294C155.301 158.225 156.52 156.52 156.978 154.552L164.434 122.477C164.48 122.281 164.47 122.076 164.406 121.884C164.342 121.693 164.226 121.524 164.071 121.395C163.917 121.265 163.729 121.182 163.529 121.153C163.33 121.124 163.126 121.151 162.941 121.231Z" fill="#47D7FF"/>
<path d="M151.406 100.026L164.095 102.956C165.072 103.181 165.68 104.156 165.455 105.132L164.642 108.653C164.417 109.63 163.442 110.239 162.465 110.013L149.777 107.084C148.8 106.859 148.191 105.884 148.417 104.907L149.23 101.386C149.455 100.41 150.43 99.8008 151.406 100.026Z" fill="#1899D6"/>
<path d="M148.779 106.814L162.532 109.989C163.507 110.214 164.114 111.187 163.89 112.161C163.665 113.136 162.692 113.743 161.717 113.518L147.964 110.343C146.989 110.118 146.382 109.145 146.607 108.171C146.832 107.197 147.804 106.589 148.779 106.814Z" fill="#CCF8F7"/>
<path d="M16.0669 178.041C7.47009 178.041 0.500988 170.877 0.500988 162.04C0.500988 153.203 7.47009 146.04 16.0669 146.04C24.6637 146.04 31.6328 153.203 31.6328 162.04C31.6328 170.877 24.6637 178.041 16.0669 178.041Z" fill="#78C800"/>
<path d="M28.0186 141.214H42.4817C51.2831 141.214 58.418 148.349 58.418 157.151C58.418 165.952 51.2831 173.087 42.4817 173.087H28.0186C19.2172 173.087 12.0823 165.952 12.0823 157.151C12.0823 148.349 19.2172 141.214 28.0186 141.214Z" stroke="#FF4B4B" stroke-width="6.897"/>
<path d="M87.2911 87.7929C68.2941 93.424 55.9759 96.2391 50.3356 96.2391C47.1236 96.2391 43.7787 94.8778 40.3009 92.1544C33.5295 86.8524 23.7413 88.0441 18.4393 94.8164C16.2941 97.5564 15.1284 100.936 15.1283 104.416V151.178C15.1283 176.627 35.7588 197.258 61.2091 197.258C86.6576 197.258 107.289 176.627 107.289 151.177V102.724C107.289 94.1234 100.317 87.1512 91.7158 87.1512C90.218 87.1512 88.7275 87.3676 87.2911 87.7929Z" fill="#78C800"/>
<path fill-rule="evenodd" clip-rule="evenodd" d="M54.4349 110.211C50.4703 114.535 43.9968 113.816 40.6775 110.169C35.535 104.638 34.6468 112.94 38.0155 135.075H57.3132C58.0374 115.616 57.0785 107.328 54.4349 110.211Z" fill="#8EE000"/>
<path fill-rule="evenodd" clip-rule="evenodd" d="M70.1218 103.847H68.9732C59.4252 103.847 51.6849 111.587 51.6849 121.136V131.533C51.6849 141.081 59.4252 148.821 68.9732 148.821H70.1218C79.6698 148.821 87.4102 141.081 87.4102 131.533V121.136C87.4102 111.588 79.6698 103.847 70.1218 103.847Z" fill="#8EE000"/>
<path d="M66.7779 96.7964L52.806 111.981C52.0727 112.795 52.3459 114.086 53.345 114.529C58.1456 116.665 63.8739 115.461 67.4865 111.449C71.1 107.437 71.6995 101.616 69.0732 97.0669C68.5269 96.1181 67.5112 95.9834 66.7779 96.7964Z" fill="#8EE000"/>
<path d="M73.7318 100.406L60.056 115.59C59.3227 116.404 59.5959 117.695 60.595 118.138C65.3956 120.274 71.1239 119.07 74.7365 115.058C78.35 111.046 78.9495 105.225 76.3232 100.675C76.1959 100.455 76.0183 100.268 75.805 100.13C75.5918 99.9921 75.3488 99.9064 75.0961 99.8802C74.8434 99.8539 74.5881 99.8878 74.3509 99.979C74.1138 100.07 73.9017 100.217 73.7318 100.406ZM28.4549 97.3556L39.8087 109.635C40.4027 110.295 40.036 111.472 39.0845 111.96C34.5095 114.307 29.3945 113.757 26.4657 110.505C23.537 107.254 23.5232 102.11 26.3346 97.8075C26.9204 96.911 27.86 96.6965 28.4549 97.3556Z" fill="#8EE000"/>
<path fill-rule="evenodd" clip-rule="evenodd" d="M28.5813 103.847C21.0839 103.847 15.0064 109.925 15.0064 117.421V135.246C15.0064 142.743 21.0839 148.821 28.5813 148.821C36.0787 148.821 42.1562 142.743 42.1562 135.246V117.421C42.1562 109.925 36.0787 103.846 28.5813 103.846V103.847Z" fill="#8EE000"/>
<path d="M69.0291 109.865C62.0239 109.865 56.3443 115.545 56.3443 122.55V130.377C56.3443 137.383 62.0239 143.062 69.0291 143.062C76.0352 143.062 81.7148 137.383 81.7148 130.377V122.55C81.7148 115.545 76.0352 109.865 69.0291 109.865Z" fill="white"/>
<mask id="mask0_1595_5576" style="mask-type:luminance" maskUnits="userSpaceOnUse" x="52" y="106" width="34" height="41">
<path d="M69.0261 109.865C62.0209 109.865 56.3413 115.545 56.3413 122.55V130.377C56.3413 137.382 62.0209 143.062 69.0261 143.062C76.0322 143.062 81.7109 137.382 81.7109 130.377V122.55C81.7109 115.545 76.0322 109.865 69.0261 109.865Z" stroke="#8EE000" stroke-width="7.623"/>
</mask>
<g mask="url(#mask0_1595_5576)">
<path d="M82.668 137.6C74.033 137.482 66.0699 140.258 58.776 145.927" stroke="#8EE000" stroke-width="7.623"/>
</g>
<path d="M30.3525 110.227C24.7489 110.227 20.2059 114.77 20.2059 120.375V132.915C20.2059 138.518 24.7489 143.062 30.3534 143.062C35.957 143.062 40.5 138.518 40.5 132.915V120.375C40.5 114.77 35.957 110.227 30.3525 110.227Z" fill="white"/>
<path d="M30.3525 110.227C24.7489 110.227 20.2059 114.77 20.2059 120.375V132.915C20.2059 138.518 24.7489 143.062 30.3534 143.062C35.957 143.062 40.5 138.518 40.5 132.915V120.375C40.5 114.77 35.957 110.227 30.3525 110.227Z" fill="white"/>
<path fill-rule="evenodd" clip-rule="evenodd" d="M29.5781 114.781C28.9363 114.78 28.3008 114.907 27.7078 115.152C27.1148 115.398 26.576 115.758 26.1221 116.212C25.6682 116.665 25.3082 117.204 25.0625 117.797C24.8169 118.39 24.6905 119.025 24.6905 119.667V128.728C24.6905 129.369 24.8169 130.005 25.0625 130.598C25.308 131.191 25.668 131.729 26.1218 132.183C26.5755 132.637 27.1143 132.997 27.7071 133.242C28.3 133.488 28.9355 133.614 29.5772 133.614C30.219 133.614 30.8544 133.488 31.4473 133.242C32.0402 132.997 32.5789 132.637 33.0327 132.183C33.4865 131.729 33.8464 131.191 34.092 130.598C34.3376 130.005 34.464 129.369 34.464 128.728V119.667C34.4637 118.372 33.9489 117.129 33.0327 116.213C32.1165 115.297 30.8739 114.781 29.5781 114.781ZM64.6911 114.418C63.1069 114.418 61.5877 115.048 60.4675 116.168C59.3474 117.288 58.7181 118.807 58.7181 120.391V127.279C58.7181 128.863 59.3474 130.383 60.4675 131.503C61.5877 132.623 63.1069 133.252 64.6911 133.252C66.2752 133.252 67.7945 132.623 68.9146 131.503C70.0348 130.383 70.6641 128.863 70.6641 127.279V120.391C70.6641 118.807 70.0348 117.288 68.9146 116.168C67.7945 115.048 66.2752 114.418 64.6911 114.418Z" fill="#4B4B4B"/>
<path fill-rule="evenodd" clip-rule="evenodd" d="M46.8135 132.062C45.0971 132.062 43.451 132.744 42.2373 133.958C41.0237 135.172 40.3418 136.818 40.3418 138.534V146.597C40.3418 148.313 41.0237 149.96 42.2373 151.173C43.451 152.387 45.0971 153.069 46.8135 153.069C48.5299 153.069 50.176 152.387 51.3896 151.173C52.6033 149.96 53.2852 148.313 53.2852 146.597V138.534C53.2852 136.818 52.6033 135.172 51.3896 133.958C50.176 132.744 48.5299 132.062 46.8135 132.062Z" fill="#F49000"/>
<path d="M46.0907 134.959C44.8426 134.959 43.6455 135.455 42.7629 136.338C41.8804 137.22 41.3845 138.417 41.3845 139.665V145.465C41.3845 146.713 41.8804 147.91 42.7629 148.793C43.6455 149.675 44.8426 150.171 46.0907 150.171C47.3389 150.171 48.5359 149.675 49.4185 148.793C50.3011 147.91 50.7969 146.713 50.7969 145.465V139.665C50.7969 138.417 50.3011 137.22 49.4185 136.338C48.5359 135.455 47.3389 134.959 46.0907 134.959Z" fill="#CD7900"/>
<mask id="mask1_1595_5576" style="mask-type:luminance" maskUnits="userSpaceOnUse" x="41" y="134" width="10" height="17">
<path d="M46.0907 134.959C45.4727 134.959 44.8607 135.081 44.2897 135.317C43.7188 135.554 43.2 135.901 42.7629 136.338C42.3259 136.775 41.9793 137.293 41.7428 137.864C41.5063 138.435 41.3845 139.047 41.3845 139.665V145.465C41.3845 146.713 41.8804 147.91 42.7629 148.793C43.6455 149.675 44.8426 150.171 46.0907 150.171C47.3389 150.171 48.5359 149.675 49.4185 148.793C50.301 147.91 50.7969 146.713 50.7969 145.465V139.665C50.7969 138.417 50.301 137.22 49.4185 136.338C48.5359 135.455 47.3389 134.959 46.0907 134.959V134.959Z" fill="#FFBABA"/>
</mask>
<g mask="url(#mask1_1595_5576)">
<path d="M50.9029 156.92C46.8042 156.92 43.4816 153.595 43.4816 149.495C43.4816 145.394 46.8042 142.07 50.9029 142.07C55.0016 142.07 58.3242 145.394 58.3242 149.495C58.3242 153.595 55.0016 156.92 50.9029 156.92Z" fill="#FFBABA"/>
</g>
<path d="M55.3108 138.536C54.5985 134.23 50.7916 131.025 46.2981 131.025C41.8046 131.025 37.9986 134.23 37.2873 138.536L37.2378 138.832L41.69 140.361L55.3594 138.832L55.3108 138.536Z" fill="#FFC200"/>
<path d="M48.1094 133.963C46.7668 133.503 45.3096 133.503 43.967 133.963" stroke="#FFDE00" stroke-width="2.59508" stroke-linecap="round" stroke-linejoin="round"/>
<path d="M69.6912 122.016C67.5467 122.016 65.8082 120.274 65.8082 118.125C65.8082 115.977 67.5467 114.235 69.6912 114.235C71.8357 114.235 73.5742 115.977 73.5742 118.125C73.5742 120.274 71.8357 122.016 69.6912 122.016Z" fill="white"/>
<path fill-rule="evenodd" clip-rule="evenodd" d="M34.4803 122.74C33.9698 122.74 33.4644 122.639 32.9929 122.443C32.5214 122.247 32.0931 121.961 31.7325 121.599C31.3718 121.238 31.0858 120.809 30.8909 120.337C30.696 119.866 30.5959 119.36 30.5964 118.85C30.5959 118.339 30.696 117.834 30.8909 117.362C31.0858 116.89 31.3718 116.461 31.7325 116.1C32.0931 115.739 32.5214 115.452 32.9929 115.256C33.4644 115.061 33.9698 114.96 34.4803 114.959C34.9907 114.96 35.496 115.061 35.9674 115.256C36.4387 115.452 36.8669 115.739 37.2275 116.1C37.5881 116.461 37.874 116.89 38.0688 117.362C38.2637 117.834 38.3638 118.339 38.3633 118.85C38.3638 119.36 38.2637 119.865 38.0688 120.337C37.874 120.809 37.5881 121.238 37.2275 121.599C36.8669 121.96 36.4387 122.247 35.9674 122.443C35.496 122.638 34.9907 122.739 34.4803 122.74Z" fill="white"/>
<path fill-rule="evenodd" clip-rule="evenodd" d="M15.5497 139.217C15.8239 140.225 16.1995 141.202 16.6707 142.134C20.7224 144.074 29.0852 146.163 35.8804 146.163C38.3004 146.163 38.8834 143.101 37.7293 142.541C30.8635 139.213 23.7685 138.05 16.4452 139.052C16.1052 139.098 15.8072 139.154 15.5497 139.217Z" fill="#8EE000"/>
<path d="M63.2928 164.399L51.6768 164.395C51.0535 164.395 50.6135 164.969 50.806 165.53C51.73 168.224 54.4176 170.086 57.4866 170.086C60.5556 170.088 63.2433 168.229 64.1655 165.534C64.358 164.974 63.9152 164.399 63.2928 164.399ZM44.107 164.399L32.491 164.395C31.8676 164.395 31.4276 164.969 31.6201 165.53C32.5441 168.224 35.2318 170.086 38.3008 170.086C41.3698 170.088 44.0575 168.229 44.9796 165.534C45.1721 164.974 44.7294 164.399 44.107 164.399ZM53.1572 174.178L41.5403 174.174C40.9179 174.174 40.477 174.749 40.6695 175.309C41.5944 178.004 44.282 179.865 47.351 179.865C50.42 179.867 53.1068 178.008 54.029 175.314C54.2215 174.753 53.7796 174.178 53.1572 174.178Z" fill="#8EE000"/>
<path d="M26.8776 197.97C28.1352 200.907 30.5204 202.851 34.0312 203.804" stroke="#F49000" stroke-width="11.979" stroke-linecap="round" stroke-linejoin="round"/>
<path d="M50.7674 0.375H41.8143C32.1912 0.375 24.3903 8.17583 24.3903 17.799V26.4138C24.3903 36.037 32.1912 43.8378 41.8143 43.8378H68.1914V17.799C68.1923 8.17767 60.3915 0.375 50.7674 0.375Z" fill="#1CB0F6"/>
<path d="M62.8065 3.27258H102.539C111.16 3.27258 118.148 10.261 118.148 18.8816V28.2288C118.148 36.8494 111.16 43.8378 102.539 43.8378H62.8065C54.1859 43.8378 47.1975 36.8494 47.1975 28.2288V18.8816C47.1975 10.261 54.1859 3.27258 62.8065 3.27258Z" fill="#AA572A"/>
<path d="M73.3124 0.375H98.1898C108.214 0.375 116.34 8.50103 116.34 18.525V25.6878C116.34 35.7118 108.214 43.8378 98.1898 43.8378H73.3124C63.2885 43.8378 55.1624 35.7118 55.1624 25.6878V18.525C55.1624 8.50103 63.2885 0.375 73.3124 0.375Z" fill="#1CB0F6"/>
<path d="M107.332 3.27258H133.309C141.93 3.27258 148.918 10.261 148.918 18.8816V28.2288C148.918 36.8494 141.93 43.8378 133.309 43.8378H107.332C98.7109 43.8378 91.7226 36.8494 91.7226 28.2288V18.8816C91.7226 10.261 98.7109 3.27258 107.332 3.27258Z" fill="#AA572A"/>
<path d="M118.197 0.375H139.818C149.642 0.375 157.605 8.33851 157.605 18.162V26.0508C157.605 35.8743 149.642 43.8378 139.818 43.8378H118.197C108.374 43.8378 100.41 35.8743 100.41 26.0508V18.162C100.41 8.33851 108.374 0.375 118.197 0.375Z" fill="#1CB0F6"/>
<path d="M141.725 0.375H144.169C153.19 0.375 160.504 7.68843 160.504 16.71V27.5028C160.504 36.5244 153.19 43.8378 144.169 43.8378H141.725C132.704 43.8378 125.39 36.5244 125.39 27.5028V16.71C125.39 7.68843 132.704 0.375 141.725 0.375Z" fill="#0190D3"/>
<path d="M159.765 145.198H121.767V177.071H159.765C160.92 177.071 162.028 176.612 162.845 175.795C163.662 174.979 164.121 173.871 164.121 172.716V149.554C164.121 148.399 163.662 147.291 162.845 146.474C162.028 145.657 160.92 145.198 159.765 145.198Z" fill="#EA2B2B"/>
<path d="M153.987 150.631C152.974 150.631 152.14 151.428 152.093 152.44L151.571 163.675C151.556 164.001 151.607 164.328 151.722 164.634C151.836 164.94 152.012 165.22 152.238 165.457C152.464 165.693 152.735 165.882 153.036 166.01C153.337 166.139 153.66 166.205 153.987 166.205C154.314 166.205 154.638 166.139 154.939 166.01C155.24 165.882 155.511 165.693 155.737 165.457C155.963 165.22 156.138 164.94 156.253 164.634C156.367 164.328 156.419 164.001 156.404 163.675L155.881 152.44C155.859 151.953 155.649 151.493 155.297 151.156C154.944 150.819 154.475 150.631 153.987 150.631ZM132.02 87.3007C131.008 87.3007 130.174 88.0963 130.127 89.1083L129.605 100.344C129.59 100.671 129.641 100.997 129.756 101.303C129.871 101.609 130.046 101.889 130.272 102.126C130.498 102.362 130.769 102.55 131.07 102.679C131.371 102.808 131.694 102.874 132.021 102.874C132.348 102.874 132.672 102.808 132.972 102.679C133.273 102.55 133.545 102.362 133.77 102.126C133.996 101.889 134.172 101.609 134.287 101.303C134.401 100.997 134.453 100.671 134.438 100.344L133.915 89.1083C133.892 88.6213 133.683 88.1617 133.33 87.8251C132.978 87.4884 132.508 87.3006 132.02 87.3007Z" fill="#DF8A8A"/>
<path opacity="0.551" d="M155.794 81.1434H131.184C130.583 81.1434 130.095 81.6311 130.095 82.2324V84.0383C130.095 84.6396 130.583 85.1273 131.184 85.1273H155.794C156.083 85.1273 156.36 85.0125 156.564 84.8083C156.768 84.6041 156.883 84.3271 156.883 84.0383V82.2324C156.883 81.6311 156.395 81.1434 155.794 81.1434Z" fill="#D8D8D8"/>
<path d="M91.5523 140.49H99.86C108.962 140.49 116.34 147.868 116.34 156.97C116.34 166.071 108.962 173.449 99.86 173.449H91.5523C82.4507 173.449 75.0724 166.071 75.0724 156.97C75.0724 147.868 82.4507 140.49 91.5523 140.49Z" stroke="#EA2B2B" stroke-width="6.897"/>
<path d="M96.9734 180.87C86.2777 180.87 77.607 172.035 77.607 161.135C77.607 150.236 86.2777 141.401 96.9734 141.401C107.669 141.401 116.34 150.236 116.34 161.135C116.34 172.035 107.669 180.87 96.9734 180.87Z" fill="#78C800"/>
<path d="M110.174 215.685H19.0977" stroke="#E2E2E2" stroke-width="7.26733" stroke-linecap="round" stroke-linejoin="round"/>
</svg>
