<svg width="144" height="181" viewBox="0 0 144 181" fill="none" xmlns="http://www.w3.org/2000/svg">
<g clip-path="url(#clip0_1595_5634)">
<path d="M39.7344 148.876C44.6476 145.273 51.5519 146.334 55.1554 151.248C58.7588 156.161 57.6971 163.066 52.7839 166.669L44.5464 172.71C39.6331 176.313 32.7288 175.252 29.1253 170.34C25.5217 165.426 26.5834 158.521 31.4968 154.918L39.7344 148.876Z" fill="#E619DF"/>
<path fill-rule="evenodd" clip-rule="evenodd" d="M37.2366 150.711C40.555 155.6 39.4327 162.277 34.6296 165.798L28.8898 170.009C25.5713 165.121 26.6936 158.444 31.4967 154.921L37.2366 150.711Z" fill="#C128C1"/>
<path d="M17.5937 146.489C22.507 142.885 29.4111 143.947 33.0147 148.86C36.6182 153.773 35.5565 160.678 30.6433 164.281L22.4057 170.323C17.4924 173.926 10.5882 172.864 6.98465 167.952C3.38111 163.038 4.44285 156.134 9.35611 152.53L17.5937 146.489Z" fill="#E619DF"/>
<path d="M9.08665 110.54L41.5608 33.5483C56.9342 31.5543 75.5831 58.5822 64.6268 90.0894C54.9448 117.933 31.17 123.578 12.1208 117.62C9.17563 116.699 7.88742 113.384 9.08665 110.54Z" fill="url(#paint0_radial_1595_5634)"/>
<path d="M95.9321 12.7232C90.1144 11.8613 66.3139 -8.11426 38.8425 4.59226C28.4196 9.41326 23.4178 18.0895 21.8549 31.0401C20.4699 42.5162 25.1415 54.187 28.7601 66.7016C24.2015 81.0918 21.2175 91.1185 26.059 103.777C34.9181 126.939 63.155 151.071 100.828 137.606C157.497 117.352 141.103 47.1601 136.794 31.6461C132.484 16.1321 122.903 9.06126 114.931 9.70768C106.958 10.3541 101.75 13.585 95.9321 12.7232Z" fill="url(#paint1_radial_1595_5634)"/>
<path fill-rule="evenodd" clip-rule="evenodd" d="M38.2863 123.103C45.6103 120.757 53.882 116.124 62.0486 107.087C63.0283 106.003 62.9435 104.33 61.8595 103.35C60.7753 102.371 59.1024 102.455 58.1229 103.539C50.564 111.904 43.0709 116.024 36.6206 118.08C35.9112 118.307 35.2132 118.508 34.5273 118.688C35.6983 120.2 36.9524 121.676 38.2863 123.103Z" fill="#1F66FB"/>
<path fill-rule="evenodd" clip-rule="evenodd" d="M135.892 38.4149C134.556 28.1999 129.185 24.1227 125.587 24.5933C121.988 25.0638 122.444 29.6162 123.78 39.8312C124.289 43.7264 124.505 45.8259 124.616 47.0832C127.086 48.8553 128.867 51.6115 128.867 54.7815C128.246 54.9736 127.567 55.1373 126.842 55.2742C127.532 56.7904 128.384 58.3215 129.345 59.4329C132.029 56.1936 135.309 54.123 137.612 53.0473C137.58 51.8592 137.465 50.4913 137.259 48.9155L135.892 38.4149Z" fill="#C7FFFE"/>
<path fill-rule="evenodd" clip-rule="evenodd" d="M124.616 47.0883C125.797 47.9354 126.82 49.0073 127.567 50.2416L127.734 50.2179C130.488 49.8285 132.404 47.2806 132.015 44.5268L130.291 32.3325C129.925 29.7459 127.655 27.8979 125.099 28.0056C126.111 28.7243 126.771 29.9057 126.771 31.2413C126.771 33.2985 125.204 34.9899 123.199 35.1879C123.358 36.5845 123.557 38.1316 123.78 39.8362C124.289 43.7316 124.505 45.8311 124.616 47.0883Z" fill="#3C4DFF"/>
<path fill-rule="evenodd" clip-rule="evenodd" d="M80.4075 18.6156C90.278 17.3249 99.3624 24.5593 100.698 34.7742L102.059 45.1781C102.91 51.6889 100.408 57.839 95.9258 61.7775C89.4644 56.9238 79.1152 51.0272 66.3015 49.7519L64.9541 39.4484C63.6183 29.2335 70.537 19.9064 80.4075 18.6156Z" fill="#C7FFFE"/>
<path fill-rule="evenodd" clip-rule="evenodd" d="M81.5933 34.7121C84.6982 34.1838 86.7839 31.2838 86.2518 28.235C86.0944 27.3333 85.7256 26.5194 85.2039 25.8342C85.8476 25.5551 86.5369 25.3476 87.2625 25.2241C91.9581 24.425 96.4045 27.4433 97.1938 31.9656L98.7182 40.7001C99.5075 45.2224 96.3409 49.5362 91.6452 50.3355C86.9496 51.1345 82.5032 48.1162 81.7139 43.5939L80.1895 34.8596C80.1847 34.8327 80.1802 34.8058 80.1758 34.7788C80.639 34.8139 81.1142 34.7936 81.5933 34.7121Z" fill="#3C4DFF"/>
<path fill-rule="evenodd" clip-rule="evenodd" d="M109.216 57.2164C110.047 57.135 110.787 57.7429 110.868 58.5738C111.51 65.1376 113.235 69.5447 115.581 71.6027C116.698 72.583 117.976 73.0524 119.473 72.9813C121.015 72.9083 122.901 72.2544 125.144 70.7587C125.839 70.2956 126.777 70.4833 127.241 71.1781C127.704 71.8727 127.516 72.8113 126.821 73.2746C124.295 74.9583 121.882 75.8941 119.617 76.0015C117.307 76.111 115.27 75.3521 113.587 73.8755C110.333 71.02 108.517 65.5998 107.859 58.8681C107.778 58.0372 108.385 57.2976 109.216 57.2164Z" fill="#0455FF"/>
<path d="M120.228 68.9274C116.403 68.3048 116.003 65.4134 113.289 55.2717H123.431C123.653 56.962 124.276 62.1663 124.588 64.3903C124.962 67.069 123.52 69.4631 120.228 68.9274Z" fill="#0455FF"/>
<path fill-rule="evenodd" clip-rule="evenodd" d="M112.707 46.6868C113.311 47.2626 114.24 47.6842 115.537 47.7394C115.674 47.7453 115.809 47.7505 115.942 47.7557C118.441 47.8539 120.308 47.9273 122.053 50.9402C122.848 52.3146 126.352 52.2831 126.926 49.2996C124.905 46.6754 121.594 44.9891 118.427 44.9893C116.267 44.9893 114.308 45.6408 112.707 46.6868Z" fill="#C7FFFE"/>
<path fill-rule="evenodd" clip-rule="evenodd" d="M107.421 54.2147C107.634 53.4073 108.461 52.9251 109.268 53.1377C116.418 55.0211 123.093 54.272 127.2 53.4507C128.019 53.287 128.815 53.8179 128.979 54.6367C129.143 55.4553 128.612 56.2517 127.793 56.4156C123.448 57.2845 116.264 58.1074 108.498 56.0616C107.691 55.849 107.209 55.0219 107.421 54.2147Z" fill="#0455FF"/>
<path fill-rule="evenodd" clip-rule="evenodd" d="M63.2758 8.06845C62.4381 7.75685 61.6203 7.73092 60.7824 8.24093C60.0692 8.67507 59.1392 8.44887 58.7051 7.7357C58.2709 7.02252 58.4971 6.09242 59.2103 5.65829C61.0315 4.54958 62.8604 4.68805 64.3298 5.23459C65.7489 5.76236 66.9009 6.6877 67.5949 7.30465C68.2189 7.85935 68.2752 8.8149 67.7204 9.43893C67.1658 10.063 66.2101 10.1192 65.5861 9.56449C64.9797 9.0253 64.164 8.39881 63.2758 8.06845Z" fill="#C7FFFE"/>
<path fill-rule="evenodd" clip-rule="evenodd" d="M113.268 11.0306C113.98 10.5945 114.911 10.8181 115.347 11.5301C117.233 14.6096 117.784 17.4627 116.843 19.7009C115.869 22.0178 113.56 23.0844 111.094 23.0844C110.259 23.0844 109.582 22.4077 109.582 21.5727C109.582 20.7378 110.259 20.0609 111.094 20.0609C112.748 20.0609 113.693 19.3927 114.056 18.529C114.452 17.5864 114.425 15.813 112.769 13.1093C112.332 12.3973 112.556 11.4666 113.268 11.0306Z" fill="#1F66FB"/>
<path fill-rule="evenodd" clip-rule="evenodd" d="M60.6694 5.68054C61.4014 6.082 61.6694 7.00092 61.268 7.733C59.6225 10.7336 60.4382 14.4061 60.9397 15.9106L61.309 17.0185L60.3305 17.6556C60.0414 17.8439 59.5142 18.3499 58.8711 19.237C58.2508 20.0928 57.5893 21.2111 56.9996 22.5171C55.8151 25.14 54.9685 28.4106 55.232 31.7325C55.958 40.8803 56.9625 50.0916 58.491 54.955C58.5603 55.1756 58.6302 55.402 58.7017 55.6337C59.4725 58.1294 60.4305 61.2319 62.8356 64.124C65.4216 67.2337 69.8056 70.2239 77.8163 71.5474C90.7683 73.6873 98.1859 69.7554 100.068 67.9123C100.665 67.3282 101.622 67.3382 102.206 67.9348C102.79 68.5314 102.78 69.4885 102.184 70.0726C99.4416 72.7576 90.9623 76.7839 77.3236 74.5305C68.715 73.1082 63.6333 69.812 60.5108 66.0573C57.7008 62.6782 56.5799 59.0268 55.8174 56.5434C55.7442 56.305 55.6743 56.0771 55.6065 55.8614C53.9557 50.6088 52.9371 41.0328 52.218 31.9717C51.9036 28.0099 52.9116 24.2233 54.2439 21.2726C54.9127 19.7919 55.6751 18.4943 56.4231 17.4625C56.86 16.8597 57.3187 16.3103 57.7776 15.8625C57.2271 13.7131 56.6911 9.79092 58.617 6.27915C59.0183 5.54708 59.9373 5.27908 60.6694 5.68054Z" fill="#1F66FB"/>
<path fill-rule="evenodd" clip-rule="evenodd" d="M142.254 66.6227C141.902 67.3081 141.229 68.1561 140.271 68.6678C139.276 69.199 137.814 69.4565 135.728 68.4861C134.971 68.1339 134.072 68.4622 133.72 69.2193C133.367 69.9764 133.696 70.8754 134.453 71.2276C137.337 72.5694 139.802 72.3453 141.695 71.335C141.915 71.2176 142.125 71.0908 142.325 70.9565C142.326 69.4967 142.302 68.0507 142.254 66.6227Z" fill="#0455FF"/>
<path fill-rule="evenodd" clip-rule="evenodd" d="M70.0348 5.54575C69.2248 5.32358 68.8367 5.32252 68.7273 5.34356C67.9074 5.50124 67.1148 4.9644 66.9571 4.1445C66.7996 3.3246 67.3364 2.5321 68.1562 2.37443C68.9862 2.21483 69.9447 2.3858 70.8345 2.62987C71.7771 2.8884 72.8734 3.29743 74.0773 3.80706C76.4868 4.82715 79.484 6.31824 82.8171 8.02173C83.903 8.57669 85.0267 9.15524 86.1811 9.74969C92.1545 12.8254 98.954 16.3266 105.625 19.1856C107.766 20.1035 110.118 20.141 110.781 20.0673C111.611 19.9752 112.358 20.573 112.45 21.4029C112.543 22.2327 111.945 22.9803 111.115 23.0724C110.043 23.1915 107.148 23.1281 104.433 21.9647C97.655 19.0593 90.7427 15.4997 84.7714 12.4249C83.6241 11.834 82.5114 11.261 81.4411 10.714C78.1022 9.00756 75.195 7.56356 72.8985 6.59136C71.7494 6.10486 70.7922 5.75346 70.0348 5.54575Z" fill="#C7FFFE"/>
<g style="mix-blend-mode:overlay">
<path d="M97.0156 94.6377L111.458 94.8198C112.232 94.8297 112.75 95.7181 112.482 96.5744C111.19 100.689 107.75 103.498 103.935 103.45C100.119 103.401 96.8768 100.508 95.8713 96.3647C95.662 95.5024 96.2414 94.6278 97.0156 94.6377Z" fill="#204AFF"/>
</g>
<g style="mix-blend-mode:overlay">
<path d="M121.123 95.0241L133.962 94.6095C134.738 94.5833 135.274 95.4449 135.019 96.3109C133.798 100.472 131.482 103.242 127.656 103.371C123.83 103.5 121.088 100.882 120.007 96.7987C119.782 95.9489 120.347 95.0502 121.123 95.0241Z" fill="#204AFF"/>
</g>
<g style="mix-blend-mode:overlay">
<path d="M109.116 110.521L122.413 110.715C123.188 110.698 123.724 111.566 123.471 112.43C122.257 116.584 120.032 118.985 116.211 119.072C112.391 119.159 109.089 116.386 108.004 112.286C107.777 111.432 108.341 110.538 109.116 110.521Z" fill="#204AFF"/>
</g>
</g>
<defs>
<radialGradient id="paint0_radial_1595_5634" cx="0" cy="0" r="1" gradientUnits="userSpaceOnUse" gradientTransform="translate(112.284 18.9142) rotate(119.366) scale(133.976 179.711)">
<stop stop-color="#26FF55"/>
<stop offset="0.569543" stop-color="#268AFF"/>
<stop offset="0.987801" stop-color="#FC55FF"/>
</radialGradient>
<radialGradient id="paint1_radial_1595_5634" cx="0" cy="0" r="1" gradientUnits="userSpaceOnUse" gradientTransform="translate(112.284 18.9142) rotate(119.366) scale(133.976 179.711)">
<stop stop-color="#26FF55"/>
<stop offset="0.569543" stop-color="#268AFF"/>
<stop offset="0.987801" stop-color="#FC55FF"/>
</radialGradient>
<clipPath id="clip0_1595_5634">
<rect width="143.077" height="180" fill="white" transform="translate(0.460938 0.375)"/>
</clipPath>
</defs>
</svg>
