<svg width="29" height="29" viewBox="0 0 29 29" fill="none" xmlns="http://www.w3.org/2000/svg">
<path d="M14.9462 28.8915C22.7003 28.8915 28.9862 23.9003 28.9862 17.7435C28.9862 11.5866 22.7003 6.59546 14.9462 6.59546C7.19217 6.59546 0.90625 11.5866 0.90625 17.7435C0.90625 23.9003 7.19217 28.8915 14.9462 28.8915Z" fill="#FF9600"/>
<path fill-rule="evenodd" clip-rule="evenodd" d="M17.0138 1.61941L25.9104 10.7635C26.1921 11.0529 26.3666 11.3999 26.4141 11.7649C26.4615 12.1298 26.3801 12.4982 26.179 12.8279C25.9779 13.1576 25.6653 13.4354 25.2767 13.6297C24.8881 13.824 24.4392 13.927 23.9811 13.9268H5.91514C5.45717 13.927 5.00835 13.8241 4.61979 13.6299C4.23123 13.4358 3.91855 13.1581 3.71736 12.8285C3.51617 12.4989 3.43455 12.1307 3.4818 11.7658C3.52906 11.4009 3.70328 11.0539 3.98464 10.7644L12.8813 1.61941C13.1264 1.36778 13.4399 1.16423 13.7979 1.02423C14.156 0.884229 14.5491 0.811462 14.9475 0.811462C15.3459 0.811462 15.7391 0.884229 16.0972 1.02423C16.4552 1.16423 16.7687 1.36778 17.0138 1.61941Z" fill="#FF9600"/>
<path fill-rule="evenodd" clip-rule="evenodd" d="M4.94509 5.41254L22.9245 14.6869C23.3541 14.9086 23.6862 15.2326 23.8741 15.6132C24.0621 15.9939 24.0964 16.4122 23.9724 16.8093C23.8483 17.2064 23.5721 17.5624 23.1824 17.8273C22.7928 18.0922 22.3094 18.2526 21.8001 18.2861L3.55162 19.4858C3.21497 19.5079 2.87624 19.474 2.55679 19.386C2.23734 19.2981 1.9441 19.158 1.69556 18.9748C1.44702 18.7915 1.24857 18.569 1.11272 18.3213C0.976874 18.0735 0.906572 17.8059 0.90625 17.5353L0.90625 7.17744C0.906415 6.8004 1.03333 6.43035 1.27365 6.10616C1.51397 5.78197 1.85884 5.51561 2.27203 5.33505C2.68522 5.1545 3.15147 5.06641 3.62183 5.08005C4.09218 5.09368 4.54927 5.20854 4.94509 5.41254Z" fill="#FF9600"/>
<path d="M14.9486 24.3465C18.2577 24.3465 20.9402 22.2291 20.9402 19.617C20.9402 17.005 18.2577 14.8875 14.9486 14.8875C11.6395 14.8875 8.95703 17.005 8.95703 19.617C8.95703 22.2291 11.6395 24.3465 14.9486 24.3465Z" fill="#FFC800"/>
<path fill-rule="evenodd" clip-rule="evenodd" d="M15.8294 12.7777L19.6096 16.6412C19.7311 16.7649 19.8065 16.9136 19.8275 17.0701C19.8484 17.2266 19.814 17.3847 19.728 17.5263C19.6421 17.6678 19.5082 17.7872 19.3416 17.8707C19.175 17.9541 18.9825 17.9984 18.786 17.9983H11.1061C10.9096 17.9984 10.717 17.9541 10.5504 17.8707C10.3838 17.7872 10.2499 17.6678 10.164 17.5263C10.0781 17.3847 10.0436 17.2266 10.0646 17.0701C10.0855 16.9136 10.161 16.7649 10.2824 16.6412L14.0627 12.7777C14.1678 12.6705 14.3019 12.5838 14.4549 12.5242C14.6079 12.4646 14.7759 12.4337 14.946 12.4337C15.1162 12.4337 15.2841 12.4646 15.4371 12.5242C15.5902 12.5838 15.7243 12.6705 15.8294 12.7777Z" fill="#FFC800"/>
</svg>
