<svg width="34" height="31" viewBox="0 0 34 31" fill="none" xmlns="http://www.w3.org/2000/svg">
<path fill-rule="evenodd" clip-rule="evenodd" d="M4.4587 7.07397L8.38296 10.1724C8.66033 10.3914 9.06018 10.3569 9.29593 10.0936L15.1956 3.50531C16.1816 2.4043 17.8734 2.31101 18.9744 3.29694C19.0253 3.34256 19.0745 3.39011 19.1218 3.4395L25.5081 10.1074C25.7528 10.3629 26.154 10.3837 26.4238 10.1551L30.0594 7.07397C30.7854 6.45868 31.8727 6.54844 32.488 7.27445C32.8486 7.69989 32.9809 8.27352 32.8433 8.81393L28.4682 25.9871C28.2299 26.9227 27.3873 27.5775 26.4219 27.5775H7.79424C6.82874 27.5775 5.9862 26.9227 5.74785 25.9871L1.43055 9.04045C1.17067 8.02037 1.78694 6.98276 2.80702 6.72288C3.38222 6.57635 3.99285 6.70614 4.4587 7.07397Z" fill="#FFC800"/>
<path fill-rule="evenodd" clip-rule="evenodd" d="M6.88446 11.405L8.12889 12.5428C8.55927 12.9363 9.22714 12.9064 9.62063 12.476C9.63716 12.4579 9.65305 12.4392 9.66828 12.4201L12.7652 8.51962C13.2247 7.94089 14.0663 7.84423 14.645 8.30373C14.9375 8.53592 15.1196 8.87976 15.1473 9.25213L16.2452 23.9767C16.3001 24.7136 15.7473 25.3555 15.0103 25.4105C14.9772 25.4129 14.9441 25.4142 14.9109 25.4142H9.72147C9.10417 25.4142 8.56699 24.9919 8.42127 24.392L5.46979 12.2419C5.35778 11.7808 5.64078 11.3162 6.10189 11.2042C6.37991 11.1367 6.6733 11.212 6.88446 11.405Z" fill="#FFDE00"/>
</svg>
