<svg width="131" height="42" viewBox="0 0 131 42" fill="none" xmlns="http://www.w3.org/2000/svg">
<g clip-path="url(#clip0_1630_4266)">
<path fill-rule="evenodd" clip-rule="evenodd" d="M4.04688 4.81654C4.04688 4.61001 4.06331 4.41673 4.09474 4.23749L16.9598 17.8192L4.07411 31.4227C4.05616 31.2828 4.04688 31.135 4.04688 30.9797V4.81654ZM5.46472 33.0892C5.93816 33.1657 6.49943 33.0504 7.09995 32.7151L22.7668 23.9497L18.4444 19.3865L5.46472 33.0892ZM19.9289 17.8192L24.7081 22.8647L30.5307 19.6076C32.2092 18.6671 32.2092 17.1292 30.5307 16.1911L24.6092 12.8782L19.9289 17.8192ZM22.6686 11.7924L7.09995 3.08226C6.61693 2.81135 6.15916 2.68359 5.75304 2.68359C5.70047 2.68359 5.64875 2.68572 5.59794 2.68994L18.4444 16.252L22.6686 11.7924Z" fill="#4B4B4B"/>
</g>
<path d="M53.2969 7.4325C53.2422 7.24239 53.1654 7.07442 53.0664 6.92859C52.9674 6.78015 52.8464 6.65515 52.7031 6.55359C52.5625 6.44942 52.401 6.37 52.2188 6.31531C52.0391 6.26062 51.8398 6.23328 51.6211 6.23328C51.2122 6.23328 50.8529 6.33484 50.543 6.53796C50.2357 6.74109 49.9961 7.03666 49.8242 7.42468C49.6523 7.8101 49.5664 8.28145 49.5664 8.83875C49.5664 9.39604 49.651 9.87 49.8203 10.2606C49.9896 10.6512 50.2292 10.9494 50.5391 11.1552C50.849 11.3583 51.2148 11.4598 51.6367 11.4598C52.0195 11.4598 52.3464 11.3921 52.6172 11.2567C52.8906 11.1187 53.099 10.9247 53.2422 10.6747C53.388 10.4247 53.4609 10.1291 53.4609 9.78796L53.8047 9.83875H51.7422V8.56531H55.0898V9.57312C55.0898 10.2762 54.9414 10.8804 54.6445 11.3856C54.3477 11.8882 53.9388 12.2762 53.418 12.5497C52.8971 12.8205 52.3008 12.9559 51.6289 12.9559C50.8789 12.9559 50.2201 12.7906 49.6523 12.4598C49.0846 12.1265 48.6419 11.6538 48.3242 11.0419C48.0091 10.4273 47.8516 9.69812 47.8516 8.85437C47.8516 8.20593 47.9453 7.62781 48.1328 7.11999C48.3229 6.60958 48.5885 6.17729 48.9297 5.82312C49.2708 5.46895 49.668 5.19942 50.1211 5.01453C50.5742 4.82963 51.0651 4.73718 51.5938 4.73718C52.0469 4.73718 52.4688 4.80359 52.8594 4.9364C53.25 5.06661 53.5964 5.25151 53.8984 5.49109C54.2031 5.73067 54.4518 6.01583 54.6445 6.34656C54.8372 6.67468 54.9609 7.03666 55.0156 7.4325H53.2969ZM59.0635 12.9637C58.4463 12.9637 57.915 12.8387 57.4697 12.5887C57.027 12.3361 56.6859 11.9794 56.4463 11.5184C56.2067 11.0549 56.0869 10.5067 56.0869 9.8739C56.0869 9.25671 56.2067 8.71505 56.4463 8.2489C56.6859 7.78276 57.0231 7.41947 57.458 7.15906C57.8955 6.89864 58.4085 6.76843 58.9971 6.76843C59.3929 6.76843 59.7614 6.83223 60.1025 6.95984C60.4463 7.08484 60.7458 7.27364 61.001 7.52625C61.2588 7.77885 61.4593 8.09656 61.6025 8.47937C61.7458 8.85958 61.8174 9.30489 61.8174 9.81531V10.2723H56.751V9.24109H60.251C60.251 9.00151 60.1989 8.78927 60.0947 8.60437C59.9906 8.41947 59.846 8.27494 59.6611 8.17078C59.4788 8.06401 59.2666 8.01062 59.0244 8.01062C58.7718 8.01062 58.5479 8.06921 58.3525 8.1864C58.1598 8.30098 58.0088 8.45593 57.8994 8.65124C57.79 8.84395 57.734 9.0588 57.7314 9.29578V10.2762C57.7314 10.5731 57.7861 10.8296 57.8955 11.0458C58.0075 11.2619 58.165 11.4286 58.3682 11.5458C58.5713 11.663 58.8122 11.7216 59.0908 11.7216C59.2757 11.7216 59.445 11.6955 59.5986 11.6434C59.7523 11.5913 59.8838 11.5132 59.9932 11.4091C60.1025 11.3049 60.1859 11.1773 60.2432 11.0262L61.7822 11.1278C61.7041 11.4976 61.5439 11.8205 61.3018 12.0966C61.0622 12.37 60.7523 12.5835 60.3721 12.7372C59.9945 12.8882 59.5583 12.9637 59.0635 12.9637ZM66.0947 6.84656V8.09656H62.4814V6.84656H66.0947ZM63.3018 5.40906H64.9658V11.0028C64.9658 11.1565 64.9893 11.2762 65.0361 11.3622C65.083 11.4455 65.1481 11.5041 65.2314 11.538C65.3174 11.5718 65.4163 11.5887 65.5283 11.5887C65.6064 11.5887 65.6846 11.5822 65.7627 11.5692C65.8408 11.5536 65.9007 11.5419 65.9424 11.5341L66.2041 12.7723C66.1208 12.7984 66.0036 12.8283 65.8525 12.8622C65.7015 12.8986 65.5179 12.9208 65.3018 12.9286C64.9007 12.9442 64.5492 12.8908 64.2471 12.7684C63.9476 12.646 63.7145 12.4559 63.5479 12.1981C63.3812 11.9403 63.2992 11.6148 63.3018 11.2216V5.40906ZM69.7246 12.8466V6.84656H71.3887V12.8466H69.7246ZM70.5605 6.07312C70.3132 6.07312 70.1009 5.99109 69.9238 5.82703C69.7493 5.66036 69.6621 5.46114 69.6621 5.22937C69.6621 5.0002 69.7493 4.80359 69.9238 4.63953C70.1009 4.47286 70.3132 4.38953 70.5605 4.38953C70.8079 4.38953 71.0189 4.47286 71.1934 4.63953C71.3704 4.80359 71.459 5.0002 71.459 5.22937C71.459 5.46114 71.3704 5.66036 71.1934 5.82703C71.0189 5.99109 70.8079 6.07312 70.5605 6.07312ZM75.9131 6.84656V8.09656H72.2998V6.84656H75.9131ZM73.1201 5.40906H74.7842V11.0028C74.7842 11.1565 74.8076 11.2762 74.8545 11.3622C74.9014 11.4455 74.9665 11.5041 75.0498 11.538C75.1357 11.5718 75.2347 11.5887 75.3467 11.5887C75.4248 11.5887 75.5029 11.5822 75.5811 11.5692C75.6592 11.5536 75.7191 11.5419 75.7607 11.5341L76.0225 12.7723C75.9391 12.7984 75.8219 12.8283 75.6709 12.8622C75.5199 12.8986 75.3363 12.9208 75.1201 12.9286C74.7191 12.9442 74.3675 12.8908 74.0654 12.7684C73.766 12.646 73.5329 12.4559 73.3662 12.1981C73.1995 11.9403 73.1175 11.6148 73.1201 11.2216V5.40906ZM82.2539 12.9637C81.6471 12.9637 81.1224 12.8348 80.6797 12.577C80.2396 12.3166 79.8997 11.9546 79.6602 11.4911C79.4206 11.0249 79.3008 10.4846 79.3008 9.87C79.3008 9.2502 79.4206 8.70854 79.6602 8.24499C79.8997 7.77885 80.2396 7.41687 80.6797 7.15906C81.1224 6.89864 81.6471 6.76843 82.2539 6.76843C82.8607 6.76843 83.3841 6.89864 83.8242 7.15906C84.2669 7.41687 84.6081 7.77885 84.8477 8.24499C85.0872 8.70854 85.207 9.2502 85.207 9.87C85.207 10.4846 85.0872 11.0249 84.8477 11.4911C84.6081 11.9546 84.2669 12.3166 83.8242 12.577C83.3841 12.8348 82.8607 12.9637 82.2539 12.9637ZM82.2617 11.6747C82.5378 11.6747 82.7682 11.5966 82.9531 11.4403C83.138 11.2815 83.2773 11.0653 83.3711 10.7919C83.4674 10.5184 83.5156 10.2072 83.5156 9.85828C83.5156 9.50932 83.4674 9.19812 83.3711 8.92468C83.2773 8.65125 83.138 8.4351 82.9531 8.27624C82.7682 8.11739 82.5378 8.03796 82.2617 8.03796C81.9831 8.03796 81.7487 8.11739 81.5586 8.27624C81.3711 8.4351 81.2292 8.65125 81.1328 8.92468C81.0391 9.19812 80.9922 9.50932 80.9922 9.85828C80.9922 10.2072 81.0391 10.5184 81.1328 10.7919C81.2292 11.0653 81.3711 11.2815 81.5586 11.4403C81.7487 11.5966 81.9831 11.6747 82.2617 11.6747ZM87.9531 9.37781V12.8466H86.2891V6.84656H87.875V7.90515H87.9453C88.0781 7.55619 88.3008 7.28015 88.6133 7.07703C88.9258 6.8713 89.3047 6.76843 89.75 6.76843C90.1667 6.76843 90.5299 6.85958 90.8398 7.04187C91.1497 7.22416 91.3906 7.48458 91.5625 7.82312C91.7344 8.15906 91.8203 8.5601 91.8203 9.02624V12.8466H90.1563V9.32312C90.1589 8.95593 90.0651 8.66947 89.875 8.46375C89.6849 8.25541 89.4232 8.15125 89.0898 8.15125C88.8659 8.15125 88.668 8.19942 88.4961 8.29578C88.3268 8.39213 88.194 8.53276 88.0977 8.71765C88.0039 8.89994 87.9557 9.12 87.9531 9.37781Z" fill="#4B4B4B"/>
<path d="M55.2301 27.1434C55.1605 26.9015 55.0627 26.6877 54.9368 26.5021C54.8108 26.3132 54.6567 26.1541 54.4744 26.0248C54.2955 25.8922 54.09 25.7912 53.858 25.7216C53.6293 25.652 53.3757 25.6172 53.0973 25.6172C52.5769 25.6172 52.1196 25.7464 51.7251 26.0049C51.334 26.2635 51.0291 26.6396 50.8104 27.1335C50.5916 27.624 50.4822 28.2239 50.4822 28.9332C50.4822 29.6425 50.59 30.2457 50.8054 30.7429C51.0208 31.24 51.3258 31.6195 51.7202 31.8814C52.1146 32.1399 52.5803 32.2691 53.1172 32.2691C53.6044 32.2691 54.0204 32.183 54.3651 32.0106C54.7131 31.835 54.9782 31.588 55.1605 31.2699C55.3461 30.9517 55.4389 30.5755 55.4389 30.1413L55.8764 30.2059H53.2514V28.5852H57.5121V29.8679C57.5121 30.7628 57.3232 31.5317 56.9453 32.1747C56.5675 32.8144 56.0471 33.3082 55.3842 33.6562C54.7214 34.0009 53.9624 34.1733 53.1072 34.1733C52.1527 34.1733 51.3142 33.9628 50.5916 33.5419C49.8691 33.1176 49.3056 32.5161 48.9013 31.7372C48.5002 30.955 48.2997 30.027 48.2997 28.9531C48.2997 28.1278 48.419 27.392 48.6577 26.7457C48.8996 26.0961 49.2377 25.5459 49.6719 25.0951C50.1061 24.6444 50.6115 24.3013 51.1882 24.066C51.7649 23.8307 52.3897 23.713 53.0625 23.713C53.6392 23.713 54.1761 23.7976 54.6733 23.9666C55.1705 24.1323 55.6113 24.3676 55.9957 24.6726C56.3835 24.9775 56.7 25.3404 56.9453 25.7613C57.1906 26.1789 57.348 26.6396 57.4176 27.1434H55.2301ZM62.5396 34.1832C61.7673 34.1832 61.0995 34.0191 60.536 33.691C59.9759 33.3596 59.5434 32.8989 59.2385 32.3089C58.9335 31.7156 58.7811 31.0279 58.7811 30.2457C58.7811 29.4569 58.9335 28.7675 59.2385 28.1775C59.5434 27.5842 59.9759 27.1235 60.536 26.7954C61.0995 26.464 61.7673 26.2983 62.5396 26.2983C63.3118 26.2983 63.978 26.464 64.5382 26.7954C65.1016 27.1235 65.5358 27.5842 65.8407 28.1775C66.1457 28.7675 66.2981 29.4569 66.2981 30.2457C66.2981 31.0279 66.1457 31.7156 65.8407 32.3089C65.5358 32.8989 65.1016 33.3596 64.5382 33.691C63.978 34.0191 63.3118 34.1832 62.5396 34.1832ZM62.5495 32.5426C62.9009 32.5426 63.1942 32.4431 63.4295 32.2443C63.6648 32.0421 63.8422 31.767 63.9615 31.419C64.0841 31.071 64.1454 30.6749 64.1454 30.2308C64.1454 29.7867 64.0841 29.3906 63.9615 29.0426C63.8422 28.6946 63.6648 28.4195 63.4295 28.2173C63.1942 28.0151 62.9009 27.914 62.5495 27.914C62.1949 27.914 61.8966 28.0151 61.6547 28.2173C61.416 28.4195 61.2354 28.6946 61.1127 29.0426C60.9934 29.3906 60.9338 29.7867 60.9338 30.2308C60.9338 30.6749 60.9934 31.071 61.1127 31.419C61.2354 31.767 61.416 32.0421 61.6547 32.2443C61.8966 32.4431 62.1949 32.5426 62.5495 32.5426ZM71.1255 34.1832C70.3533 34.1832 69.6854 34.0191 69.122 33.691C68.5618 33.3596 68.1293 32.8989 67.8244 32.3089C67.5195 31.7156 67.367 31.0279 67.367 30.2457C67.367 29.4569 67.5195 28.7675 67.8244 28.1775C68.1293 27.5842 68.5618 27.1235 69.122 26.7954C69.6854 26.464 70.3533 26.2983 71.1255 26.2983C71.8978 26.2983 72.564 26.464 73.1241 26.7954C73.6876 27.1235 74.1217 27.5842 74.4267 28.1775C74.7316 28.7675 74.8841 29.4569 74.8841 30.2457C74.8841 31.0279 74.7316 31.7156 74.4267 32.3089C74.1217 32.8989 73.6876 33.3596 73.1241 33.691C72.564 34.0191 71.8978 34.1832 71.1255 34.1832ZM71.1355 32.5426C71.4868 32.5426 71.7801 32.4431 72.0154 32.2443C72.2508 32.0421 72.4281 31.767 72.5474 31.419C72.67 31.071 72.7314 30.6749 72.7314 30.2308C72.7314 29.7867 72.67 29.3906 72.5474 29.0426C72.4281 28.6946 72.2508 28.4195 72.0154 28.2173C71.7801 28.0151 71.4868 27.914 71.1355 27.914C70.7808 27.914 70.4825 28.0151 70.2406 28.2173C70.002 28.4195 69.8213 28.6946 69.6987 29.0426C69.5794 29.3906 69.5197 29.7867 69.5197 30.2308C69.5197 30.6749 69.5794 31.071 69.6987 31.419C69.8213 31.767 70.002 32.0421 70.2406 32.2443C70.4825 32.4431 70.7808 32.5426 71.1355 32.5426ZM79.7015 37.0568C79.0154 37.0568 78.4271 36.9623 77.9366 36.7734C77.4494 36.5878 77.0616 36.3342 76.7733 36.0128C76.4849 35.6913 76.2976 35.33 76.2115 34.9289L78.1703 34.6654C78.2299 34.8179 78.3244 34.9604 78.4537 35.093C78.5829 35.2256 78.7536 35.3316 78.9657 35.4112C79.1812 35.494 79.443 35.5355 79.7512 35.5355C80.2119 35.5355 80.5914 35.4228 80.8897 35.1974C81.1913 34.9753 81.3422 34.6025 81.3422 34.0788V32.6818H81.2527C81.1599 32.8939 81.0207 33.0944 80.835 33.2833C80.6494 33.4723 80.4108 33.6264 80.1191 33.7457C79.8275 33.865 79.4795 33.9247 79.0751 33.9247C78.5017 33.9247 77.9797 33.7921 77.5091 33.527C77.0417 33.2585 76.6689 32.8492 76.3904 32.299C76.1154 31.7455 75.9778 31.0461 75.9778 30.201C75.9778 29.3359 76.1187 28.6134 76.4004 28.0333C76.6821 27.4533 77.0566 27.0191 77.524 26.7308C77.9946 26.4424 78.51 26.2983 79.0701 26.2983C79.4977 26.2983 79.8556 26.3712 80.144 26.517C80.4324 26.6595 80.6644 26.8385 80.84 27.0539C81.019 27.2661 81.1565 27.4749 81.2527 27.6804H81.3322V26.3977H83.4352V34.1086C83.4352 34.7583 83.2761 35.3018 82.9579 35.7393C82.6397 36.1768 82.1989 36.5049 81.6355 36.7237C81.0753 36.9458 80.4307 37.0568 79.7015 37.0568ZM79.7463 32.3338C80.0877 32.3338 80.376 32.2493 80.6113 32.0802C80.85 31.9079 81.0323 31.6626 81.1582 31.3444C81.2875 31.0229 81.3521 30.6385 81.3521 30.191C81.3521 29.7436 81.2891 29.3558 81.1632 29.0277C81.0372 28.6962 80.8549 28.4394 80.6163 28.2571C80.3777 28.0748 80.0877 27.9836 79.7463 27.9836C79.3983 27.9836 79.1049 28.0781 78.8663 28.267C78.6277 28.4526 78.447 28.7111 78.3244 29.0426C78.2018 29.374 78.1404 29.7568 78.1404 30.191C78.1404 30.6318 78.2018 31.013 78.3244 31.3345C78.4503 31.6527 78.631 31.8996 78.8663 32.0753C79.1049 32.2476 79.3983 32.3338 79.7463 32.3338ZM87.2385 23.8522V34.0341H85.1206V23.8522H87.2385ZM92.4151 34.1832C91.6296 34.1832 90.9535 34.0241 90.3867 33.7059C89.8233 33.3844 89.3891 32.9304 89.0842 32.3437C88.7792 31.7538 88.6268 31.0561 88.6268 30.2507C88.6268 29.4652 88.7792 28.7758 89.0842 28.1825C89.3891 27.5892 89.8183 27.1269 90.3718 26.7954C90.9286 26.464 91.5816 26.2983 92.3306 26.2983C92.8344 26.2983 93.3034 26.3795 93.7376 26.5419C94.1751 26.701 94.5562 26.9413 94.881 27.2628C95.2092 27.5842 95.4644 27.9886 95.6467 28.4758C95.829 28.9597 95.9201 29.5265 95.9201 30.1761V30.7578H89.4719V29.4453H93.9265C93.9265 29.1404 93.8602 28.8702 93.7276 28.6349C93.5951 28.3996 93.4111 28.2156 93.1758 28.0831C92.9438 27.9472 92.6737 27.8792 92.3654 27.8792C92.0439 27.8792 91.7589 27.9538 91.5103 28.1029C91.265 28.2488 91.0728 28.446 90.9336 28.6946C90.7944 28.9398 90.7231 29.2133 90.7198 29.5149V30.7628C90.7198 31.1406 90.7894 31.4671 90.9286 31.7422C91.0711 32.0172 91.2717 32.2294 91.5302 32.3785C91.7887 32.5277 92.0953 32.6022 92.4499 32.6022C92.6853 32.6022 92.9007 32.5691 93.0962 32.5028C93.2918 32.4365 93.4592 32.3371 93.5984 32.2045C93.7376 32.0719 93.8436 31.9095 93.9165 31.7173L95.8754 31.8466C95.7759 32.3172 95.5721 32.7282 95.2638 33.0795C94.9589 33.4275 94.5645 33.6993 94.0806 33.8949C93.6 34.0871 93.0449 34.1832 92.4151 34.1832ZM100.582 34.0341V23.8522H104.599C105.372 23.8522 106.029 23.9997 106.573 24.2947C107.117 24.5864 107.531 24.9924 107.816 25.5128C108.104 26.0298 108.248 26.6264 108.248 27.3025C108.248 27.9787 108.103 28.5753 107.811 29.0923C107.519 29.6093 107.097 30.012 106.543 30.3004C105.993 30.5887 105.327 30.7329 104.545 30.7329H101.984V29.0078H104.197C104.611 29.0078 104.952 28.9365 105.221 28.794C105.492 28.6482 105.695 28.4476 105.827 28.1924C105.963 27.9339 106.031 27.6373 106.031 27.3025C106.031 26.9645 105.963 26.6695 105.827 26.4176C105.695 26.1624 105.492 25.9652 105.221 25.826C104.949 25.6834 104.604 25.6122 104.187 25.6122H102.735V34.0341H100.582ZM111.725 23.8522V34.0341H109.607V23.8522H111.725ZM115.599 34.1782C115.112 34.1782 114.677 34.0937 114.296 33.9247C113.915 33.7523 113.614 33.4988 113.392 33.164C113.173 32.826 113.063 32.405 113.063 31.9012C113.063 31.477 113.141 31.1207 113.297 30.8324C113.453 30.544 113.665 30.312 113.933 30.1363C114.202 29.9607 114.507 29.8281 114.848 29.7386C115.193 29.6491 115.554 29.5861 115.932 29.5497C116.376 29.5033 116.734 29.4602 117.006 29.4204C117.278 29.3773 117.475 29.3144 117.597 29.2315C117.72 29.1486 117.781 29.026 117.781 28.8636V28.8338C117.781 28.5189 117.682 28.2753 117.483 28.1029C117.288 27.9306 117.009 27.8444 116.648 27.8444C116.267 27.8444 115.963 27.9289 115.738 28.098C115.513 28.2637 115.364 28.4725 115.291 28.7244L113.332 28.5653C113.431 28.1013 113.627 27.7003 113.919 27.3622C114.21 27.0208 114.586 26.759 115.047 26.5767C115.511 26.3911 116.048 26.2983 116.658 26.2983C117.082 26.2983 117.488 26.348 117.876 26.4474C118.267 26.5468 118.613 26.701 118.915 26.9098C119.22 27.1186 119.46 27.387 119.636 27.7152C119.811 28.04 119.899 28.4294 119.899 28.8835V34.0341H117.891V32.9751H117.831C117.709 33.2137 117.544 33.4242 117.339 33.6065C117.133 33.7855 116.887 33.9263 116.598 34.0291C116.31 34.1285 115.977 34.1782 115.599 34.1782ZM116.205 32.7166C116.517 32.7166 116.792 32.6553 117.031 32.5326C117.269 32.4067 117.457 32.2377 117.593 32.0255C117.728 31.8134 117.796 31.5731 117.796 31.3047V30.4943C117.73 30.5374 117.639 30.5771 117.523 30.6136C117.41 30.6467 117.283 30.6782 117.14 30.7081C116.998 30.7346 116.855 30.7594 116.713 30.7826C116.57 30.8025 116.441 30.8208 116.325 30.8373C116.076 30.8738 115.859 30.9318 115.673 31.0113C115.488 31.0909 115.344 31.1986 115.241 31.3345C115.138 31.4671 115.087 31.6328 115.087 31.8316C115.087 32.12 115.191 32.3404 115.4 32.4929C115.612 32.642 115.881 32.7166 116.205 32.7166ZM122.577 36.8977C122.308 36.8977 122.056 36.8762 121.821 36.8331C121.589 36.7933 121.397 36.7419 121.244 36.6789L121.721 35.098C121.97 35.1742 122.194 35.2156 122.393 35.2223C122.595 35.2289 122.769 35.1825 122.915 35.0831C123.064 34.9836 123.185 34.8146 123.278 34.576L123.402 34.2528L120.662 26.3977H122.89L124.471 32.0056H124.55L126.146 26.3977H128.388L125.42 34.8593C125.278 35.2703 125.084 35.6283 124.839 35.9332C124.597 36.2414 124.29 36.4784 123.919 36.6441C123.548 36.8132 123.1 36.8977 122.577 36.8977Z" fill="#4B4B4B"/>
<defs>
<clipPath id="clip0_1630_4266">
<rect width="34" height="34" fill="white" transform="translate(0.546875 0.846558)"/>
</clipPath>
</defs>
</svg>
