<svg width="246" height="163" viewBox="0 0 246 163" fill="none" xmlns="http://www.w3.org/2000/svg">
<g clip-path="url(#clip0_1595_5689)">
<path d="M215.719 0.841064H29.8801C24.527 0.841064 20.1875 5.18058 20.1875 10.5337V142.599C20.1875 147.952 24.527 152.292 29.8801 152.292H215.719C221.072 152.292 225.411 147.952 225.411 142.599V10.5337C225.411 5.18058 221.072 0.841064 215.719 0.841064Z" fill="#5C5B5B"/>
<path d="M204.621 13.5189H39.3654C36.6891 13.5189 34.5195 15.6885 34.5195 18.3648V134.767C34.5195 137.444 36.6891 139.613 39.3654 139.613H204.621C207.297 139.613 209.466 137.444 209.466 134.767V18.3648C209.466 15.6885 207.297 13.5189 204.621 13.5189Z" fill="white"/>
<path d="M34.5977 110.869H209.92V134.809C209.92 136.094 209.409 137.327 208.5 138.236C207.591 139.145 206.359 139.656 205.073 139.656H39.4444C38.8078 139.656 38.1775 139.53 37.5894 139.287C37.0013 139.043 36.467 138.686 36.0169 138.236C35.5668 137.786 35.2099 137.251 34.9663 136.663C34.7228 136.075 34.5975 135.445 34.5977 134.808V110.867V110.869Z" fill="#70D700"/>
<path d="M72.0117 125.097L75.3387 128.388C75.4551 128.503 75.6122 128.567 75.7759 128.567C75.9397 128.567 76.0968 128.503 76.2131 128.388L82.5645 122.103" stroke="white" stroke-width="2.79531" stroke-linecap="round"/>
<path d="M176.397 33.8255H73.4518C71.5972 33.8255 70.0938 35.329 70.0938 37.1836V37.1845C70.0938 39.0391 71.5972 40.5426 73.4518 40.5426H176.397C178.252 40.5426 179.755 39.0391 179.755 37.1845V37.1836C179.755 35.329 178.252 33.8255 176.397 33.8255Z" fill="#D2E4E8"/>
<path d="M106.068 33.8255H73.4518C71.5972 33.8255 70.0938 35.329 70.0938 37.1836V37.1845C70.0938 39.0391 71.5972 40.5426 73.4518 40.5426H106.068C107.923 40.5426 109.426 39.0391 109.426 37.1845V37.1836C109.426 35.329 107.923 33.8255 106.068 33.8255Z" fill="#70D700"/>
<path d="M2.11558 147.696H243.485C243.697 147.696 243.907 147.738 244.103 147.819C244.3 147.901 244.478 148.02 244.628 148.17C244.778 148.32 244.897 148.498 244.978 148.694C245.059 148.89 245.101 149.101 245.101 149.313V154.971C245.101 158.988 241.846 162.245 237.83 162.245H7.77011C3.75513 162.245 0.5 158.988 0.5 154.971V149.313C0.499884 149.101 0.541586 148.89 0.622724 148.694C0.703862 148.498 0.822847 148.32 0.972879 148.17C1.12291 148.02 1.30105 147.901 1.49712 147.819C1.69319 147.738 1.90334 147.696 2.11558 147.696Z" fill="#C1C9CB"/>
<path opacity="0.25" d="M273.723 -39.2582V95.19L45.5898 -39.2582H273.723Z" fill="white"/>
<path opacity="0.4" d="M147.755 121.945H92.1147C91.32 121.945 90.6758 122.589 90.6758 123.384V123.385C90.6758 124.179 91.32 124.823 92.1147 124.823H147.755C148.55 124.823 149.194 124.179 149.194 123.385V123.384C149.194 122.589 148.55 121.945 147.755 121.945Z" fill="white"/>
<path opacity="0.4" d="M119.935 127.702H92.1147C91.32 127.702 90.6758 128.347 90.6758 129.141V129.142C90.6758 129.937 91.32 130.581 92.1147 130.581H119.935C120.729 130.581 121.374 129.937 121.374 129.142V129.141C121.374 128.347 120.729 127.702 119.935 127.702Z" fill="white"/>
<path d="M94.0396 59.894H75.645C72.9977 59.894 70.8516 62.0402 70.8516 64.6875V85.4877C70.8516 88.135 72.9977 90.2811 75.645 90.2811H94.0396C96.6869 90.2811 98.8331 88.135 98.8331 85.4877V64.6875C98.8331 62.0402 96.6869 59.894 94.0396 59.894Z" stroke="#D2E4E8" stroke-width="1.59783"/>
<path d="M134.008 59.894H115.614C112.966 59.894 110.82 62.0402 110.82 64.6875V85.4877C110.82 88.135 112.966 90.2811 115.614 90.2811H134.008C136.656 90.2811 138.802 88.135 138.802 85.4877V64.6875C138.802 62.0402 136.656 59.894 134.008 59.894Z" fill="#D2E4E8" stroke="#D2E4E8" stroke-width="1.59783"/>
<path d="M173.981 59.894H155.586C152.939 59.894 150.793 62.0402 150.793 64.6875V85.4877C150.793 88.135 152.939 90.2811 155.586 90.2811H173.981C176.628 90.2811 178.774 88.135 178.774 85.4877V64.6875C178.774 62.0402 176.628 59.894 173.981 59.894Z" stroke="#D2E4E8" stroke-width="1.59783"/>
</g>
<defs>
<clipPath id="clip0_1595_5689">
<rect width="245" height="161.558" fill="white" transform="translate(0.5 0.6875)"/>
</clipPath>
</defs>
</svg>
