<svg width="246" height="163" viewBox="0 0 246 163" fill="none" xmlns="http://www.w3.org/2000/svg">
<g clip-path="url(#clip0_1595_5484)">
<path d="M215.719 0.528564H29.8801C24.527 0.528564 20.1875 4.86808 20.1875 10.2212V142.287C20.1875 147.64 24.527 151.979 29.8801 151.979H215.719C221.072 151.979 225.411 147.64 225.411 142.287V10.2212C225.411 4.86808 221.072 0.528564 215.719 0.528564Z" fill="#5C5B5B"/>
<path d="M204.621 13.2064H39.3654C36.6891 13.2064 34.5195 15.376 34.5195 18.0523V134.455C34.5195 137.131 36.6891 139.301 39.3654 139.301H204.621C207.297 139.301 209.466 137.131 209.466 134.455V18.0523C209.466 15.376 207.297 13.2064 204.621 13.2064Z" fill="white"/>
<path d="M184.249 34.1069H183.361C182.381 34.1069 181.586 34.9018 181.586 35.8823V38.5453C181.586 39.5258 182.381 40.3207 183.361 40.3207H184.249C185.229 40.3207 186.024 39.5258 186.024 38.5453V35.8823C186.024 34.9018 185.229 34.1069 184.249 34.1069Z" fill="#78C800"/>
<path d="M184.488 28.7115L189.25 34.4264C189.358 34.556 189.427 34.7137 189.448 34.881C189.47 35.0482 189.444 35.2182 189.372 35.371C189.3 35.5237 189.187 35.6529 189.045 35.7435C188.902 35.834 188.737 35.8821 188.568 35.8822H179.044C178.875 35.8821 178.71 35.834 178.567 35.7435C178.425 35.6529 178.312 35.5237 178.24 35.371C178.168 35.2182 178.142 35.0482 178.164 34.881C178.185 34.7137 178.254 34.556 178.362 34.4264L183.124 28.7115C183.208 28.6116 183.312 28.5312 183.43 28.4761C183.547 28.4209 183.676 28.3923 183.806 28.3923C183.936 28.3923 184.065 28.4209 184.182 28.4761C184.3 28.5312 184.404 28.6116 184.488 28.7115Z" fill="#78C800"/>
<path d="M184.249 72.2772H183.361C182.381 72.2772 181.586 71.4824 181.586 70.5019V67.8388C181.586 66.8583 182.381 66.0635 183.361 66.0635H184.249C185.229 66.0635 186.024 66.8583 186.024 67.8388V70.5019C186.024 71.4824 185.229 72.2772 184.249 72.2772Z" fill="#EA2B2B"/>
<path d="M184.488 77.6725L189.25 71.9576C189.358 71.828 189.427 71.6704 189.448 71.5031C189.47 71.3358 189.444 71.1658 189.372 71.0131C189.3 70.8603 189.187 70.7311 189.045 70.6406C188.902 70.55 188.737 70.5019 188.568 70.5018H179.044C178.875 70.5019 178.71 70.55 178.567 70.6406C178.425 70.7311 178.312 70.8603 178.24 71.0131C178.168 71.1658 178.142 71.3358 178.164 71.5031C178.185 71.6704 178.254 71.828 178.362 71.9576L183.124 77.6725C183.208 77.7724 183.312 77.8528 183.43 77.908C183.547 77.9631 183.676 77.9917 183.806 77.9917C183.936 77.9917 184.065 77.9631 184.182 77.908C184.3 77.8528 184.404 77.7724 184.488 77.6725Z" fill="#EA2B2B"/>
<path d="M184.249 111.335H183.361C182.381 111.335 181.586 112.13 181.586 113.111V115.774C181.586 116.754 182.381 117.549 183.361 117.549H184.249C185.229 117.549 186.024 116.754 186.024 115.774V113.111C186.024 112.13 185.229 111.335 184.249 111.335Z" fill="#78C800"/>
<path d="M184.488 105.94L189.25 111.655C189.358 111.784 189.427 111.942 189.448 112.109C189.47 112.277 189.444 112.446 189.372 112.599C189.3 112.752 189.187 112.881 189.045 112.972C188.902 113.062 188.737 113.11 188.568 113.11H179.044C178.875 113.11 178.71 113.062 178.567 112.972C178.425 112.881 178.312 112.752 178.24 112.599C178.168 112.446 178.142 112.277 178.164 112.109C178.185 111.942 178.254 111.784 178.362 111.655L183.124 105.94C183.208 105.84 183.312 105.76 183.43 105.704C183.547 105.649 183.676 105.621 183.806 105.621C183.936 105.621 184.065 105.649 184.182 105.704C184.3 105.76 184.404 105.84 184.488 105.94Z" fill="#78C800"/>
<path d="M65.3449 26.1178C66.7689 26.1179 68.1561 26.5695 69.3072 27.4077C70.4583 28.2458 71.314 29.4274 71.7513 30.7826L75.7264 43.0982C75.8734 43.5544 75.9106 44.0388 75.8348 44.512C75.759 44.9852 75.5724 45.4337 75.2903 45.8211C75.0082 46.2085 74.6385 46.5237 74.2113 46.741C73.7842 46.9583 73.3118 47.0715 72.8325 47.0715H57.6807C57.1992 47.0715 56.7246 46.9571 56.296 46.7378C55.8674 46.5184 55.497 46.2004 55.2153 45.81C54.9336 45.4195 54.7487 44.9677 54.6757 44.4918C54.6028 44.0159 54.6439 43.5294 54.7957 43.0725L58.8942 30.7692C59.345 29.4149 60.2107 28.2368 61.3685 27.4019C62.5263 26.5671 63.9175 26.1178 65.3449 26.1178Z" fill="#2D2D2D"/>
<path d="M72.9413 39.4543C74.3586 39.4543 75.5076 38.264 75.5076 36.7957C75.5076 35.3274 74.3586 34.1371 72.9413 34.1371C71.524 34.1371 70.375 35.3274 70.375 36.7957C70.375 38.264 71.524 39.4543 72.9413 39.4543Z" fill="#8B4824"/>
<path d="M57.5741 39.4543C58.9914 39.4543 60.1404 38.264 60.1404 36.7957C60.1404 35.3274 58.9914 34.1371 57.5741 34.1371C56.1568 34.1371 55.0078 35.3274 55.0078 36.7957C55.0078 38.264 56.1568 39.4543 57.5741 39.4543Z" fill="#8B4824"/>
<path d="M65.2604 27.6703C67.0151 27.6703 68.6978 28.3673 69.9386 29.608C71.1793 30.8488 71.8763 32.5315 71.8763 34.2862V38.6447C71.8763 39.5135 71.7052 40.3738 71.3727 41.1765C71.0402 41.9792 70.5529 42.7085 69.9386 43.3228C69.3242 43.9372 68.5949 44.4245 67.7922 44.757C66.9895 45.0895 66.1292 45.2606 65.2604 45.2606C64.3916 45.2606 63.5313 45.0895 62.7286 44.757C61.926 44.4245 61.1966 43.9372 60.5823 43.3228C59.9679 42.7085 59.4806 41.9792 59.1481 41.1765C58.8157 40.3738 58.6445 39.5135 58.6445 38.6447V34.2862C58.6445 32.5315 59.3416 30.8488 60.5823 29.608C61.823 28.3673 63.5058 27.6703 65.2604 27.6703Z" fill="#A56644"/>
<path d="M67.1754 39.2057C66.1218 39.0797 65.3539 38.9252 64.879 38.7459C64.405 38.5666 63.7534 38.184 62.9314 37.5999L62.6909 37.4286L62.4743 38.0473C62.2499 38.6887 62.285 39.3924 62.572 40.0083C62.8591 40.6241 63.3754 41.1035 64.0109 41.3442C64.3165 41.4598 64.6419 41.5142 64.9686 41.5041C65.2952 41.494 65.6167 41.4196 65.9146 41.2852C66.2125 41.1509 66.481 40.9591 66.7048 40.721C66.9286 40.4828 67.1033 40.2029 67.2189 39.8972L67.2402 39.8395L67.4506 39.2386L67.1754 39.2057Z" fill="white" stroke="white" stroke-width="0.443841" stroke-linecap="round" stroke-linejoin="round"/>
<path d="M69.1409 27.3614L68.0934 29.7777C67.5321 31.0727 66.6044 32.1753 65.4245 32.9498C64.2447 33.7244 62.8641 34.137 61.4527 34.1371H57.6445L58.7666 30.7781C59.2196 29.421 60.0881 28.2407 61.2489 27.4044C62.4098 26.568 63.8043 26.1179 65.2351 26.1178C66.6705 26.1178 68.026 26.5705 69.1409 27.3614Z" fill="#2D2D2D"/>
<path d="M57.401 76.0063C56.2288 76.0063 55.2785 75.0219 55.2785 73.8076C55.2785 72.5932 56.2288 71.6088 57.401 71.6088C58.5732 71.6088 59.5234 72.5932 59.5234 73.8076C59.5234 75.0219 58.5732 76.0063 57.401 76.0063Z" fill="#CD7C60"/>
<path d="M65.0099 65.6587C63.1891 65.6587 61.4428 66.382 60.1553 67.6695C58.8678 68.957 58.1445 70.7032 58.1445 72.524V76.1253C58.1445 77.027 58.3221 77.9198 58.6672 78.7528C59.0122 79.5858 59.5179 80.3426 60.1555 80.9802C60.793 81.6177 61.5499 82.1234 62.3829 82.4685C63.2159 82.8135 64.1087 82.9911 65.0103 82.9911C65.9119 82.9911 66.8047 82.8135 67.6377 82.4685C68.4707 82.1234 69.2276 81.6177 69.8651 80.9802C70.5027 80.3426 71.0084 79.5858 71.3534 78.7528C71.6985 77.9198 71.8761 77.027 71.8761 76.1253V72.524C71.8761 71.6224 71.6985 70.7296 71.3534 69.8966C71.0083 69.0636 70.5025 68.3067 69.8649 67.6692C69.2274 67.0317 68.4704 66.526 67.6374 66.181C66.8043 65.8361 65.9115 65.6586 65.0099 65.6587Z" fill="#DB8E73"/>
<path d="M66.134 74.713H64.1367V75.748H66.134V74.713Z" fill="#B4654A"/>
<path d="M60.8871 72.5799C60.8871 71.6146 61.6697 70.832 62.635 70.832C63.6003 70.832 64.3828 71.6146 64.3828 72.5799V74.5168C64.3828 75.4821 63.6003 76.2646 62.635 76.2646C61.6697 76.2646 60.8871 75.4821 60.8871 74.5168V72.5799Z" fill="white"/>
<path d="M62.1383 72.8746C62.1383 72.4608 62.4737 72.1254 62.8875 72.1254C63.3013 72.1254 63.6367 72.4608 63.6367 72.8746V74.2221C63.6367 74.6358 63.3013 74.9713 62.8875 74.9713C62.4737 74.9713 62.1383 74.6358 62.1383 74.2221V72.8746Z" fill="#4B4B4B"/>
<path d="M69.3785 72.5799C69.3785 71.6146 68.596 70.832 67.6307 70.832C66.6653 70.832 65.8828 71.6146 65.8828 72.5799V74.5168C65.8828 75.4821 66.6653 76.2646 67.6307 76.2646C68.596 76.2646 69.3785 75.4821 69.3785 74.5168V72.5799Z" fill="white"/>
<path d="M68.1312 72.8746C68.1312 72.4608 67.7958 72.1254 67.382 72.1254C66.9682 72.1254 66.6328 72.4608 66.6328 72.8746V74.2221C66.6328 74.6358 66.9682 74.9713 67.382 74.9713C67.7958 74.9713 68.1312 74.6358 68.1312 74.2221V72.8746Z" fill="#4B4B4B"/>
<path d="M62.1363 79.6281C60.6195 79.6281 59.3898 78.3539 59.3898 76.7822C59.3898 75.2104 60.6195 73.9363 62.1363 73.9363C63.6532 73.9363 64.8828 75.2104 64.8828 76.7822C64.8828 78.3539 63.6532 79.6281 62.1363 79.6281Z" fill="#DB8E73"/>
<path d="M68.1285 79.6281C66.6117 79.6281 65.382 78.3539 65.382 76.7822C65.382 75.2104 66.6117 73.9363 68.1285 73.9363C69.6454 73.9363 70.875 75.2104 70.875 76.7822C70.875 78.3539 69.6454 79.6281 68.1285 79.6281Z" fill="#DB8E73"/>
<path d="M65.7562 75.9034V73.0042C65.7562 72.8055 65.6773 72.6149 65.5368 72.4744C65.3963 72.3339 65.2057 72.255 65.007 72.255C64.8083 72.255 64.6178 72.3339 64.4772 72.4744C64.3367 72.6149 64.2578 72.8055 64.2578 73.0042V75.9034C64.2578 76.1021 64.3367 76.2926 64.4772 76.4331C64.6178 76.5736 64.8083 76.6526 65.007 76.6526C65.2057 76.6526 65.3963 76.5736 65.5368 76.4331C65.6773 76.2926 65.7562 76.1021 65.7562 75.9034Z" fill="#B4654A"/>
<path d="M64.6718 77.0405H65.3491C65.9207 77.0405 66.3832 76.578 66.3832 76.0072V76.0055C66.3832 75.4338 65.9207 74.9713 65.3491 74.9713H64.6709C64.1001 74.9713 63.6367 75.4338 63.6367 76.0055V76.0072C63.6367 76.578 64.101 77.0405 64.6718 77.0405Z" fill="#B4654A"/>
<path d="M60.8165 65.6489C64.053 63.293 68.5296 63.5468 71.6293 66.3395C74.73 69.1321 75.5955 73.6895 73.7944 77.3387C73.7587 77.4118 73.7064 77.4755 73.6416 77.5246C73.5769 77.5738 73.5015 77.607 73.4215 77.6217C73.3415 77.6364 73.2592 77.6321 73.1812 77.6092C73.1032 77.5862 73.0317 77.5453 72.9724 77.4897L60.7863 66.5144C60.5227 66.2765 60.5378 65.8522 60.8165 65.6489Z" fill="#FFD900"/>
<path d="M65.1929 77.8908C64.4597 77.7994 63.9262 77.6893 63.5977 77.5659C63.2711 77.4425 62.8166 77.1807 62.2431 76.7794L62.0035 76.6125L61.841 77.0741C61.6776 77.5398 61.7028 78.0508 61.9113 78.4981C62.1198 78.9453 62.4951 79.2932 62.9568 79.4673C63.1799 79.5514 63.4174 79.5907 63.6557 79.583C63.8941 79.5753 64.1285 79.5207 64.3457 79.4224C64.5629 79.324 64.7586 79.1839 64.9217 79.0099C65.0847 78.8359 65.2118 78.6315 65.2959 78.4083L65.3101 78.3702L65.4663 77.9245L65.1929 77.8908Z" fill="white" stroke="white" stroke-width="0.443841" stroke-linecap="round" stroke-linejoin="round"/>
<path d="M61.7207 70.1786C59.9986 69.7499 58.7656 68.1556 58.7656 66.3048C58.7656 64.454 59.9995 62.8597 61.7216 62.4319C61.7568 62.4237 61.7933 62.4238 61.8285 62.4319C61.8637 62.4401 61.8965 62.4562 61.9245 62.4789C61.9525 62.5017 61.9749 62.5306 61.9901 62.5633C62.0052 62.5961 62.0127 62.6319 62.0119 62.668V69.9425C62.0119 70.0996 61.8698 70.215 61.7216 70.1786H61.7207Z" fill="#FFD900"/>
<path d="M58.0299 76.0063C56.8577 76.0063 55.9075 75.0219 55.9075 73.8076C55.9075 72.5932 56.8577 71.6088 58.0299 71.6088C59.2021 71.6088 60.1523 72.5932 60.1523 73.8076C60.1523 75.0219 59.2021 76.0063 58.0299 76.0063Z" fill="#CD7C60"/>
<path d="M65.0099 65.6587C63.1891 65.6587 61.4428 66.382 60.1553 67.6695C58.8678 68.957 58.1445 70.7032 58.1445 72.524V76.6429C58.1445 78.4638 58.8679 80.2101 60.1555 81.4977C61.4431 82.7853 63.1894 83.5086 65.0103 83.5086C66.8312 83.5086 68.5776 82.7853 69.8651 81.4977C71.1527 80.2101 71.8761 78.4638 71.8761 76.6429V72.524C71.8761 71.6224 71.6985 70.7296 71.3534 69.8966C71.0083 69.0636 70.5025 68.3067 69.8649 67.6692C69.2274 67.0317 68.4704 66.526 67.6374 66.181C66.8043 65.8361 65.9115 65.6586 65.0099 65.6587Z" fill="#DB8E73"/>
<path d="M62.1363 79.6281C60.6195 79.6281 59.3898 78.3539 59.3898 76.7822C59.3898 75.2104 60.6195 73.9363 62.1363 73.9363C63.6532 73.9363 64.8828 75.2104 64.8828 76.7822C64.8828 78.3539 63.6532 79.6281 62.1363 79.6281Z" fill="#DB8E73"/>
<path d="M68.1285 79.6281C66.6117 79.6281 65.382 78.3539 65.382 76.7822C65.382 75.2104 66.6117 73.9363 68.1285 73.9363C69.6454 73.9363 70.875 75.2104 70.875 76.7822C70.875 78.3539 69.6454 79.6281 68.1285 79.6281Z" fill="#DB8E73"/>
<path d="M62.7617 78.2549C63.0575 78.566 63.4134 78.8136 63.8079 78.9829C64.2024 79.1521 64.6271 79.2394 65.0564 79.2394C65.4856 79.2394 65.9104 79.1521 66.3048 78.9829C66.6993 78.8136 67.0553 78.566 67.351 78.2549" stroke="#B4654A" stroke-width="1.29246" stroke-linecap="round"/>
<path d="M60.0904 64.9361C63.5426 62.4098 68.2988 62.6548 71.5788 65.6098C74.8588 68.564 75.7553 73.4099 73.8211 77.3033C73.7835 77.3812 73.7282 77.4491 73.6596 77.5018C73.5911 77.5544 73.5111 77.5903 73.4262 77.6064C73.3412 77.6225 73.2537 77.6185 73.1706 77.5947C73.0875 77.5709 73.0111 77.5279 72.9476 77.4693L60.054 65.8557C59.9886 65.797 59.9369 65.7246 59.9026 65.6437C59.8684 65.5627 59.8525 65.4752 59.8559 65.3874C59.8594 65.2995 59.8822 65.2135 59.9228 65.1355C59.9633 65.0575 60.0205 64.9894 60.0904 64.9361Z" fill="#FFD900"/>
<path d="M73.0546 115.172C74.4719 115.172 75.6209 113.981 75.6209 112.513C75.6209 111.045 74.4719 109.854 73.0546 109.854C71.6372 109.854 70.4883 111.045 70.4883 112.513C70.4883 113.981 71.6372 115.172 73.0546 115.172Z" fill="#A0563C"/>
<path d="M57.2147 115.172C58.632 115.172 59.781 113.981 59.781 112.513C59.781 111.045 58.632 109.854 57.2147 109.854C55.7974 109.854 54.6484 111.045 54.6484 112.513C54.6484 113.981 55.7974 115.172 57.2147 115.172Z" fill="#A0563C"/>
<path d="M59.9628 100.024H70.307C70.5786 100.024 70.8475 100.078 71.0985 100.182C71.3494 100.286 71.5774 100.438 71.7695 100.63C71.9615 100.822 72.1139 101.05 72.2178 101.301C72.3218 101.552 72.3753 101.821 72.3753 102.093V109.596H57.8945V102.093C57.8945 101.544 58.1124 101.018 58.5003 100.63C58.8882 100.242 59.4143 100.024 59.9628 100.024Z" fill="#3D3D3D"/>
<path d="M69.2728 105.457H60.997C60.5896 105.457 60.1862 105.537 59.8098 105.693C59.4334 105.849 59.0914 106.077 58.8033 106.365C58.5152 106.653 58.2866 106.995 58.1307 107.371C57.9748 107.748 57.8945 108.151 57.8945 108.558V114.129C57.8945 116.014 58.6435 117.822 59.9766 119.155C61.3097 120.488 63.1178 121.237 65.0031 121.237H65.2667C67.152 121.237 68.9601 120.488 70.2932 119.155C71.6263 117.822 72.3753 116.014 72.3753 114.129V108.558C72.3753 108.151 72.295 107.748 72.1391 107.371C71.9832 106.995 71.7546 106.653 71.4665 106.365C71.1784 106.077 70.8364 105.849 70.46 105.693C70.0836 105.537 69.6802 105.457 69.2728 105.457Z" fill="#C6775C"/>
<path d="M67.1747 115.262C66.121 115.137 65.3531 114.983 64.8782 114.803C64.4042 114.623 63.7526 114.241 62.9306 113.657L62.691 113.486L62.4744 114.104C62.2499 114.745 62.2849 115.449 62.5718 116.065C62.8586 116.681 63.3748 117.16 64.0101 117.401C64.3157 117.516 64.641 117.571 64.9677 117.561C65.2943 117.551 65.6157 117.476 65.9136 117.342C66.2115 117.208 66.48 117.016 66.7039 116.778C66.9277 116.54 67.1025 116.26 67.2181 115.955L67.2394 115.896L67.4498 115.295L67.1747 115.262Z" fill="white" stroke="white" stroke-width="0.443841" stroke-linecap="round" stroke-linejoin="round"/>
<path d="M2.11558 147.384H243.485C243.697 147.384 243.907 147.426 244.103 147.507C244.3 147.588 244.478 147.707 244.628 147.857C244.778 148.007 244.897 148.186 244.978 148.382C245.059 148.578 245.101 148.788 245.101 149V154.658C245.101 158.676 241.846 161.933 237.83 161.933H7.77011C3.75513 161.933 0.5 158.675 0.5 154.658V149C0.499884 148.788 0.541586 148.578 0.622724 148.382C0.703862 148.186 0.822847 148.007 0.972879 147.857C1.12291 147.707 1.30105 147.588 1.49712 147.507C1.69319 147.426 1.90334 147.384 2.11558 147.384Z" fill="#C1C9CB"/>
<path opacity="0.25" d="M272.129 -19.1539V115.294L43.9961 -19.1539H272.129Z" fill="white"/>
<path d="M98 40.7476L108.63 33.3834L119.259 41.369L129.889 28.3369L140.518 37.8351L151.148 31.4438" stroke="#FFC800" stroke-width="1.77536"/>
<path d="M107.465 36.7699C108.691 36.7699 109.684 35.7764 109.684 34.5507C109.684 33.3251 108.691 32.3315 107.465 32.3315C106.24 32.3315 105.246 33.3251 105.246 34.5507C105.246 35.7764 106.24 36.7699 107.465 36.7699Z" fill="white" stroke="#FFC800" stroke-width="1.77536"/>
<path d="M95.9262 42.9837C97.1519 42.9837 98.1454 41.9901 98.1454 40.7645C98.1454 39.5389 97.1519 38.5453 95.9262 38.5453C94.7006 38.5453 93.707 39.5389 93.707 40.7645C93.707 41.9901 94.7006 42.9837 95.9262 42.9837Z" fill="white" stroke="#FFC800" stroke-width="1.77536"/>
<path d="M118.118 43.8714C119.343 43.8714 120.337 42.8778 120.337 41.6522C120.337 40.4266 119.343 39.433 118.118 39.433C116.892 39.433 115.898 40.4266 115.898 41.6522C115.898 42.8778 116.892 43.8714 118.118 43.8714Z" fill="white" stroke="#FFC800" stroke-width="1.77536"/>
<path d="M129.657 31.4439C130.882 31.4439 131.876 30.4503 131.876 29.2247C131.876 27.9991 130.882 27.0055 129.657 27.0055C128.431 27.0055 127.438 27.9991 127.438 29.2247C127.438 30.4503 128.431 31.4439 129.657 31.4439Z" fill="white" stroke="#FFC800" stroke-width="1.77536"/>
<path d="M140.309 40.3206C141.535 40.3206 142.528 39.327 142.528 38.1014C142.528 36.8758 141.535 35.8822 140.309 35.8822C139.083 35.8822 138.09 36.8758 138.09 38.1014C138.09 39.327 139.083 40.3206 140.309 40.3206Z" fill="white" stroke="#FFC800" stroke-width="1.77536"/>
<path d="M151.848 33.2192C153.074 33.2192 154.067 32.2256 154.067 31C154.067 29.7743 153.074 28.7808 151.848 28.7808C150.622 28.7808 149.629 29.7743 149.629 31C149.629 32.2256 150.622 33.2192 151.848 33.2192Z" fill="white" stroke="#FFC800" stroke-width="1.77536"/>
<path d="M98 114.425L108.63 107.061L119.259 115.047L129.889 102.015L140.518 111.513L151.148 105.121" stroke="#FFC800" stroke-width="1.77536"/>
<path d="M107.465 110.447C108.691 110.447 109.684 109.454 109.684 108.228C109.684 107.003 108.691 106.009 107.465 106.009C106.24 106.009 105.246 107.003 105.246 108.228C105.246 109.454 106.24 110.447 107.465 110.447Z" fill="white" stroke="#FFC800" stroke-width="1.77536"/>
<path d="M95.9262 116.661C97.1519 116.661 98.1454 115.668 98.1454 114.442C98.1454 113.216 97.1519 112.223 95.9262 112.223C94.7006 112.223 93.707 113.216 93.707 114.442C93.707 115.668 94.7006 116.661 95.9262 116.661Z" fill="white" stroke="#FFC800" stroke-width="1.77536"/>
<path d="M118.118 117.549C119.343 117.549 120.337 116.555 120.337 115.33C120.337 114.104 119.343 113.111 118.118 113.111C116.892 113.111 115.898 114.104 115.898 115.33C115.898 116.555 116.892 117.549 118.118 117.549Z" fill="white" stroke="#FFC800" stroke-width="1.77536"/>
<path d="M129.657 105.121C130.882 105.121 131.876 104.128 131.876 102.902C131.876 101.677 130.882 100.683 129.657 100.683C128.431 100.683 127.438 101.677 127.438 102.902C127.438 104.128 128.431 105.121 129.657 105.121Z" fill="white" stroke="#FFC800" stroke-width="1.77536"/>
<path d="M140.309 113.998C141.535 113.998 142.528 113.005 142.528 111.779C142.528 110.553 141.535 109.56 140.309 109.56C139.083 109.56 138.09 110.553 138.09 111.779C138.09 113.005 139.083 113.998 140.309 113.998Z" fill="white" stroke="#FFC800" stroke-width="1.77536"/>
<path d="M151.848 106.897C153.074 106.897 154.067 105.903 154.067 104.678C154.067 103.452 153.074 102.458 151.848 102.458C150.622 102.458 149.629 103.452 149.629 104.678C149.629 105.903 150.622 106.897 151.848 106.897Z" fill="white" stroke="#FFC800" stroke-width="1.77536"/>
<path d="M98 68.2657L108.63 70.666L119.259 74.2132L129.889 70.058L140.518 75.1178L151.148 77.6033" stroke="#FFC800" stroke-width="1.77536"/>
<path d="M107.465 72.2772C108.691 72.2772 109.684 71.2836 109.684 70.0579C109.684 68.8323 108.691 67.8387 107.465 67.8387C106.24 67.8387 105.246 68.8323 105.246 70.0579C105.246 71.2836 106.24 72.2772 107.465 72.2772Z" fill="white" stroke="#FFC800" stroke-width="1.77536"/>
<path d="M95.9262 68.7265C97.1519 68.7265 98.1454 67.7329 98.1454 66.5073C98.1454 65.2817 97.1519 64.2881 95.9262 64.2881C94.7006 64.2881 93.707 65.2817 93.707 66.5073C93.707 67.7329 94.7006 68.7265 95.9262 68.7265Z" fill="white" stroke="#FFC800" stroke-width="1.77536"/>
<path d="M118.118 76.7156C119.343 76.7156 120.337 75.7221 120.337 74.4964C120.337 73.2708 119.343 72.2772 118.118 72.2772C116.892 72.2772 115.898 73.2708 115.898 74.4964C115.898 75.7221 116.892 76.7156 118.118 76.7156Z" fill="white" stroke="#FFC800" stroke-width="1.77536"/>
<path d="M129.657 72.2772C130.882 72.2772 131.876 71.2836 131.876 70.0579C131.876 68.8323 130.882 67.8387 129.657 67.8387C128.431 67.8387 127.438 68.8323 127.438 70.0579C127.438 71.2836 128.431 72.2772 129.657 72.2772Z" fill="white" stroke="#FFC800" stroke-width="1.77536"/>
<path d="M140.309 77.6032C141.535 77.6032 142.528 76.6096 142.528 75.384C142.528 74.1584 141.535 73.1648 140.309 73.1648C139.083 73.1648 138.09 74.1584 138.09 75.384C138.09 76.6096 139.083 77.6032 140.309 77.6032Z" fill="white" stroke="#FFC800" stroke-width="1.77536"/>
<path d="M151.848 80.2663C153.074 80.2663 154.067 79.2727 154.067 78.0471C154.067 76.8215 153.074 75.8279 151.848 75.8279C150.622 75.8279 149.629 76.8215 149.629 78.0471C149.629 79.2727 150.622 80.2663 151.848 80.2663Z" fill="white" stroke="#FFC800" stroke-width="1.77536"/>
</g>
<defs>
<clipPath id="clip0_1595_5484">
<rect width="245" height="161.558" fill="white" transform="translate(0.5 0.375)"/>
</clipPath>
</defs>
</svg>
