<svg width="360" height="360" viewBox="0 0 360 360" fill="none" xmlns="http://www.w3.org/2000/svg">
<g clip-path="url(#clip0_1622_4257)">
<path d="M180 360C279.411 360 360 279.411 360 180C360 80.5887 279.411 0 180 0C80.5887 0 0 80.5887 0 180C0 279.411 80.5887 360 180 360Z" fill="#24D4DE" fill-opacity="0.04"/>
<path d="M180.383 331.398C263.787 331.398 331.4 263.786 331.4 180.382C331.4 96.9778 263.787 29.3656 180.383 29.3656C96.9794 29.3656 29.3672 96.9778 29.3672 180.382C29.3672 263.786 96.9794 331.398 180.383 331.398Z" fill="#24D4DE" fill-opacity="0.06"/>
<path d="M180.476 306.574C250.117 306.574 306.573 250.119 306.573 180.478C306.573 110.836 250.117 54.3807 180.476 54.3807C110.834 54.3807 54.3789 110.836 54.3789 180.478C54.3789 250.119 110.834 306.574 180.476 306.574Z" fill="#49C0F8"/>
<path opacity="0.732096" fill-rule="evenodd" clip-rule="evenodd" d="M95.333 195.735C118.143 195.735 136.635 214.226 136.635 237.037C136.635 258.078 120.9 275.444 100.556 278.011L100.553 278.013C76.4299 258.222 59.7804 229.657 55.4805 197.194L55.4819 197.192C58.9584 196.242 62.6178 195.735 66.3956 195.735H95.333Z" fill="#58A700"/>
<path opacity="0.732096" fill-rule="evenodd" clip-rule="evenodd" d="M162.59 91.2974C162.59 111.499 148.085 128.314 128.922 131.895L128.341 131.999L128.382 132.296C128.619 134.088 128.742 135.916 128.742 137.773C128.742 160.583 110.25 179.074 87.44 179.074H58.5026C57.1759 179.074 55.8638 179.012 54.5691 178.889L54.5664 178.888C55.2739 121.617 94.161 73.5406 146.951 58.9345L146.953 58.9361C156.48 66.5021 162.59 78.1863 162.59 91.2974Z" fill="#58A700"/>
<path opacity="0.732096" fill-rule="evenodd" clip-rule="evenodd" d="M249.312 153.118C272.122 153.118 290.613 171.61 290.613 194.42C290.613 201.494 288.835 208.153 285.7 213.974L295.039 215.768C297.109 216.165 299.118 216.745 301.049 217.491L301.053 217.492C294.85 237.723 283.695 255.788 269.003 270.274L249.487 270.271C230.31 270.271 214.737 254.843 214.502 235.722L211.255 235.721C188.444 235.721 169.953 217.23 169.953 194.42C169.953 171.61 188.444 153.118 211.255 153.118H249.312Z" fill="#58A700"/>
<path opacity="0.732096" fill-rule="evenodd" clip-rule="evenodd" d="M241.032 69.8457C263.695 82.2766 282.122 101.468 293.6 124.706L274.212 124.708C270.957 135.27 261.119 142.946 249.488 142.946H236.51C222.223 142.946 210.641 131.365 210.641 117.078C210.641 103.34 221.351 92.1025 234.878 91.2605C234.855 90.75 234.844 90.2359 234.844 89.7192C234.844 82.3763 237.105 75.5618 240.971 69.9344L241.032 69.8457Z" fill="#58A700"/>
<path fill-rule="evenodd" clip-rule="evenodd" d="M259.136 253.435C266.274 253.435 272.369 257.9 274.78 264.189C267 272.949 258.017 280.617 248.091 286.934L210.03 286.932C200.78 286.932 193.281 279.433 193.281 270.183C193.281 260.933 200.78 253.435 210.03 253.435H259.136Z" fill="#BBF3F6"/>
<path d="M184.773 74.5488H164.78C155.53 74.5488 148.031 82.0475 148.031 91.2975C148.031 100.547 155.53 108.046 164.78 108.046H184.773C194.023 108.046 201.522 100.547 201.522 91.2975C201.522 82.0475 194.023 74.5488 184.773 74.5488Z" fill="#BBF3F6"/>
<path fill-rule="evenodd" clip-rule="evenodd" d="M95.6482 87.1767L106.977 87.1784C116.227 87.1784 123.726 94.677 123.726 103.927C123.726 106.194 123.275 108.356 122.459 110.329L127.847 110.328C137.097 110.328 144.596 117.827 144.596 127.077C144.596 136.327 137.097 143.826 127.847 143.826H107.854C98.6042 143.826 91.1056 136.327 91.1056 127.077C91.1056 124.81 91.5561 122.648 92.3724 120.675H69.4336C76.1719 108.189 84.9546 96.9698 95.3332 87.4643L95.6482 87.1767Z" fill="#BBF3F6"/>
<ellipse cx="198" cy="178.5" rx="10" ry="6.5" fill="#D9D9D9"/>
<ellipse cx="194.5" cy="178.5" rx="3.5" ry="2.5" fill="#F33A3A"/>
<path d="M287.5 179.5C287.5 182.261 278.345 185 261.5 185C244.655 185 231 182.761 231 180C231 177.239 244.655 175 261.5 175C278.345 175 287.5 174 287.5 179.5Z" fill="black"/>
<path d="M290.5 190.702C290.5 193.463 281.345 192.732 264.5 192.732C247.655 192.732 234 193.963 234 191.202C234 188.441 247.655 186.202 264.5 186.202C281.345 186.202 290.5 185.202 290.5 190.702Z" fill="black"/>
<path d="M290.5 198.999C290.08 201.728 281.345 201.029 264.5 201.029C247.655 201.029 243 201.76 243 198.999C243 196.237 247.655 194.499 264.5 194.499C281.345 194.499 291.5 192.5 290.5 198.999Z" fill="black"/>
<path d="M226.002 207.941C225.689 213.731 201.228 221.626 191.473 226.107C182.716 230.641 171.259 210.996 174.199 212.156C178.328 209.875 183.793 210.67 193.441 208.187C203.092 208.707 226.314 202.15 226.002 207.941Z" fill="#D9D9D9"/>
<path d="M218.903 209.781C218.643 214.596 197.919 221.141 189.655 224.859C181 232.5 172.006 212.533 174.498 213.5C177.996 211.607 183.133 212.015 191.307 209.957C199.487 210.399 219.163 204.965 218.903 209.781Z" fill="#49C0F8"/>
<path d="M216.22 213.361C216.484 214.112 207.499 218 196.499 221C192 221.5 180.297 232.593 178.003 230C177.739 229.249 185.5 218.5 195.5 216C206.502 214 215.956 212.609 216.22 213.361Z" fill="#AD0101"/>
<path d="M132.986 221.097C134.111 223.918 134.699 226.263 134.286 226.427C133.874 226.591 133.359 224.292 132.233 221.47C131.108 218.649 129.774 216.47 130.186 216.306C130.598 216.142 131.86 218.275 132.986 221.097Z" fill="#038F29"/>
<path d="M131.998 221.5C133.124 224.321 133.711 226.666 133.299 226.83C132.887 226.995 131.14 225.225 130.014 222.403C128.889 219.582 128.588 216.664 129 216.5C129.412 216.336 130.873 218.679 131.998 221.5Z" fill="#038F29"/>
</g>
<ellipse cx="8" cy="5" rx="8" ry="5" transform="matrix(-1 0 0 1 112 204)" fill="#D9D9D9"/>
<ellipse cx="3" cy="2.5" rx="3" ry="2.5" transform="matrix(-1 0 0 1 109 207)" fill="#F33A3A"/>
<path d="M59.5 217.5C60 219.5 68.7454 218.538 76.6634 218.538C84.5813 218.538 91 217.085 91 215.292C91 213.499 84.5813 214.5 76.6634 214.5C68.7454 214.5 57.947 211.288 59.5 217.5Z" fill="black"/>
<path d="M61.5 222C61 223.5 67.3353 223.557 75.2532 223.557C83.1711 223.557 89.5898 224.356 89.5898 222.564C89.5898 220.771 83.1711 219.318 75.2532 219.318C67.3353 219.318 62.6511 218.547 61.5 222Z" fill="black"/>
<path d="M63.5 227.5C63.6974 229.272 67.3353 228.943 75.2532 228.943C83.1711 228.943 85.3594 229.418 85.3594 227.625C85.3594 225.833 83.1711 224.704 75.2532 224.704C67.3353 224.704 63.0299 223.281 63.5 227.5Z" fill="black"/>
<path d="M89.0954 250.1C89.3548 254.906 109.655 261.458 117.751 265.177C125.019 268.94 134.527 252.636 132.087 253.598C128.66 251.706 124.125 252.366 116.118 250.305C108.108 250.737 88.8361 245.295 89.0954 250.1Z" fill="#D9D9D9"/>
<path d="M94.9813 251.627C95.1969 255.624 112.396 261.055 119.255 264.141C126.438 270.482 133.902 253.911 131.833 254.714C128.931 253.143 124.667 253.481 117.883 251.774C111.095 252.14 94.7656 247.631 94.9813 251.627Z" fill="#49C0F8"/>
<path d="M97.2106 254.599C96.9917 255.222 104.448 258.449 113.577 260.939C117.311 261.353 127.024 270.56 128.927 268.408C129.146 267.784 122.705 258.864 114.406 256.789C105.276 255.129 97.4295 253.975 97.2106 254.599Z" fill="#AD0101"/>
<defs>
<clipPath id="clip0_1622_4257">
<rect width="360" height="360" fill="white"/>
</clipPath>
</defs>
</svg>
