<svg width="34" height="33" viewBox="0 0 34 33" fill="none" xmlns="http://www.w3.org/2000/svg">
<path fill-rule="evenodd" clip-rule="evenodd" d="M5.97817 15.8055C5.97817 9.59074 11.0162 4.55273 17.2308 4.55273C23.4456 4.55273 28.4836 9.59074 28.4836 15.8055V16.1465C30.5149 17.1384 31.9142 19.2244 31.9142 21.6372C31.9142 25.0097 29.1801 27.7438 25.8075 27.7438H8.51682C5.14419 27.7438 2.41016 25.0097 2.41016 21.6372C2.41016 19.1703 3.87281 17.0451 5.97817 16.0815V15.8055Z" fill="#9069CD"/>
<path fill-rule="evenodd" clip-rule="evenodd" d="M8.52847 21.3667C6.91344 21.0485 5.69531 19.6246 5.69531 17.9162C5.69531 16.1784 6.95577 14.735 8.61232 14.4503C9.25634 10.4341 12.7375 7.36572 16.9353 7.36572C21.1332 7.36572 24.6144 10.4341 25.2583 14.4505C26.9145 14.7355 28.1745 16.1787 28.1745 17.9162C28.1745 19.6243 26.9568 21.048 25.3422 21.3665C25.0218 25.7297 21.3803 29.1701 16.9353 29.1701C12.4904 29.1701 8.84894 25.7298 8.52847 21.3667Z" fill="#F3AD6D"/>
<path fill-rule="evenodd" clip-rule="evenodd" d="M14.0742 15.1875C14.0742 14.619 14.535 14.1582 15.1035 14.1582C15.6719 14.1582 16.1327 14.619 16.1327 15.1875V17.932C16.1327 18.5004 15.6719 18.9612 15.1035 18.9612C14.535 18.9612 14.0742 18.5004 14.0742 17.932V15.1875Z" fill="#BF8034"/>
<path fill-rule="evenodd" clip-rule="evenodd" d="M17.6406 15.1875C17.6406 14.619 18.1014 14.1582 18.6698 14.1582C19.2383 14.1582 19.699 14.619 19.699 15.1875V17.932C19.699 18.5004 19.2383 18.9612 18.6698 18.9612C18.1014 18.9612 17.6406 18.5004 17.6406 17.932V15.1875Z" fill="#BF8034"/>
<path d="M14.0737 20.5088H19.8522C20.21 20.5088 20.5001 20.7988 20.5001 21.1567V21.4927C20.5001 23.4462 18.9165 25.0298 16.963 25.0298C15.0095 25.0298 13.4258 23.4462 13.4258 21.4927V21.1567C13.4258 20.7988 13.7159 20.5088 14.0737 20.5088Z" fill="white"/>
<path fill-rule="evenodd" clip-rule="evenodd" d="M19.5769 7.14631L20.0603 7.71797V9.65206L17.5575 12.2459L14.0449 14.092L10.1374 14.7515H7.89844V13.5647L9.17168 10.9489L10.9279 8.68512L14.7476 6.7948H18.0404L19.5769 7.14631Z" fill="#9069CD"/>
<path d="M6.33594 15.1186H9.27055C12.9083 15.0938 18.6983 14.5766 20.5847 7.91912C20.6812 7.52826 20.774 7.07638 20.8631 6.56348" stroke="#9069CD" stroke-width="1.85712"/>
</svg>
